<?xml version="1.0" encoding="utf-8"?>
<!-- Generator: Adobe Illustrator 21.0.0, SVG Export Plug-In . SVG Version: 6.00 Build 0)  -->
<svg version="1.1" id="Layer_1" xmlns="http://www.w3.org/2000/svg" xmlns:xlink="http://www.w3.org/1999/xlink" x="0px" y="0px"
	 viewBox="0 0 200 200" style="enable-background:new 0 0 200 200;" xml:space="preserve">
<style type="text/css">
	.st0{fill:url(#SVGID_1_);}
	.st1{fill:url(#SVGID_2_);}
	.st2{fill:url(#SVGID_3_);}
	.st3{fill:url(#SVGID_4_);}
	.st4{fill:url(#SVGID_5_);}
	.st5{fill:url(#SVGID_6_);}
	.st6{fill:url(#SVGID_7_);}
	.st7{fill:url(#SVGID_8_);}
	.st8{fill:url(#SVGID_9_);}
	.st9{fill:none;stroke:#231F20;stroke-linecap:round;stroke-linejoin:round;stroke-miterlimit:10;}
	.st10{fill:#231F20;}
	.st11{fill:#231F20;stroke:#231F20;stroke-linecap:round;stroke-linejoin:round;stroke-miterlimit:10;}
	.st12{fill:#231F20;stroke:#231F20;stroke-miterlimit:10;}
	.st13{fill:#FFFFFF;stroke:#231F20;stroke-linecap:round;stroke-linejoin:round;stroke-miterlimit:10;}
	.st14{fill:none;stroke:#FFFFFF;stroke-linecap:round;stroke-linejoin:round;stroke-miterlimit:10;}
	.st15{fill:none;stroke:#231F20;stroke-linecap:round;stroke-miterlimit:10;}
	.st16{fill:none;stroke:#231F20;stroke-miterlimit:10;}
	.st17{fill:none;stroke:#FFFFFF;stroke-miterlimit:10;}
</style>
<g>
	<path class="st9" d="M146.3,85.3c0,6.1-4.9,11-11,11l0,0c-6.1,0-11-4.9-11-11V71c0-6.1,4.9-11,11-11l0,0c6.1,0,11,4.9,11,11V85.3z"
		/>
	<line class="st9" x1="128.4" y1="107.7" x2="127.1" y2="92.8"/>
	<line class="st9" x1="146.3" y1="85.9" x2="148.3" y2="107.3"/>
	<path class="st9" d="M144.6,73.6c0,0-2.7-1.9-2.7-5.6c0,0-4.6,0.7-9.4,0.4c-4.3-0.2-8.7-1.2-10.5-4.1"/>
	<path class="st9" d="M124.7,62.7c0.8,1.2,3.1,2.1,6.5,2.5"/>
	<path class="st9" d="M123.3,63.5c1.2,1.9,4.4,3.1,9.3,3.3"/>
	<path class="st9" d="M132.5,68.4c-4.3-0.2-8.7-1.2-10.5-4.1"/>
	<circle class="st10" cx="140" cy="79.1" r="0.5"/>
	<circle class="st10" cx="127.4" cy="79.1" r="0.5"/>
	<path class="st9" d="M138.4,76.6c0.9-0.9,2.3-0.9,3.1,0"/>
	<path class="st9" d="M136,87.9c-0.1,0.8-0.8,1.3-1.5,1.2"/>
	<path class="st9" d="M125.9,73.9c0.9-0.9,2.3-0.9,3.1,0"/>
	<path class="st9" d="M146.4,86.9c4.3,0.7,4.8-5.4,2.6-6.1c-1.4-0.5-2.7,1-2.7,1"/>
	<polyline class="st9" points="132.3,79.9 131.8,86.5 133.3,86.5 	"/>
	<line class="st9" x1="115.1" y1="108.6" x2="128.1" y2="106"/>
	<polyline class="st9" points="117.5,164.8 117.1,156.1 111.7,139.8 	"/>
	<line class="st9" x1="165" y1="168" x2="164.8" y2="171.7"/>
	<line class="st9" x1="148.6" y1="106" x2="163.1" y2="108.1"/>
	<path class="st9" d="M63.9,158H21.9c-1.8,0-3.5-1.5-3.8-3.3L10,102.3c-0.3-1.8,1-3.3,2.8-3.3h81.2c1.8,0,3.5,1.5,3.8,3.3l8.2,52.4
		c0.3,1.8-1,3.3-2.8,3.3H66.9"/>
	<g>
		<path class="st9" d="M99.6,127.3l4.3,27.4c0.3,1.8-1,3.3-2.8,3.3"/>
		<line class="st9" x1="98.9" y1="123.1" x2="99.3" y2="125.6"/>
		<line class="st9" x1="98.3" y1="119.4" x2="98.4" y2="119.9"/>
		<line class="st9" x1="97.8" y1="116.2" x2="98.1" y2="117.8"/>
		<line class="st9" x1="97.4" y1="113.6" x2="97.6" y2="114.5"/>
		<path class="st9" d="M91.9,99c1.8,0,3.5,1.5,3.8,3.3l1.1,7"/>
	</g>
	<path class="st9" d="M67.1,178.3l-0.4-33.4c0-0.7-0.6-1.2-1.2-1.2l-14.8,0c-0.7,0-1.4,0.6-1.6,1.2l-8.3,30.5
		c-0.4,1.6,0.1,2.9,1.1,2.9"/>
	<line class="st9" x1="195.3" y1="178.3" x2="4.3" y2="178.3"/>
	<line class="st9" x1="114.8" y1="149" x2="110.8" y2="164.2"/>
	<line class="st9" x1="98.3" y1="132.7" x2="90.1" y2="178.3"/>
	<polyline class="st9" points="181.6,127.6 193.1,178.3 176.1,178.3 	"/>
	<polyline class="st9" points="101.9,163.3 148,167.6 148,178.3 	"/>
	<polyline class="st9" points="176.1,178.3 141.7,146.3 148,137.5 189.3,161.3 	"/>
	<polyline class="st9" points="141.7,146.3 131,142.3 124,144.1 121,140.7 126.3,136 134.8,133.3 148,137.5 	"/>
	<polyline class="st9" points="122,141.8 128,137.7 131.9,136.5 	"/>
	<polyline class="st9" points="123.3,143.1 128.9,139.8 131.9,138.8 	"/>
	<polyline class="st9" points="148,167.6 161.2,169.2 168.5,174.2 171.2,178.3 	"/>
	<polyline class="st9" points="168.7,178.3 166.6,175.9 161.8,173.4 	"/>
	<g>
		<polyline class="st9" points="131,134.5 137.2,124 135.6,123.1 128.4,135.3 		"/>
		<polyline class="st9" points="123.5,143.5 121.8,146.5 120.9,149.9 123.4,147.4 125.6,143.7 		"/>
		<line class="st9" x1="133.5" y1="126.7" x2="135.1" y2="127.6"/>
	</g>
	<line class="st9" x1="121.8" y1="146.5" x2="123.4" y2="147.4"/>
	<path class="st9" d="M128,99.1c0,0,6.2,1.3,19.3-0.4"/>
	<line class="st9" x1="167.7" y1="148.9" x2="171.7" y2="134.4"/>
	<path class="st9" d="M115.1,108.6c-9.1,1.8-12.6,6.1-14.5,12.5"/>
	<path class="st9" d="M163.1,108.1c11.4,1.7,15.7,7.4,18.5,19.6"/>
	<path class="st11" d="M143.3,92.8c0,0-6.3,8.5-15.3,9.8l-0.9-9.4c0,0,2.5,1.8,5.6,2.8C138.2,98,142,94.1,143.3,92.8z"/>
	<path class="st12" d="M49.5,144.2L35,158l10.6,0l3.3-12.2C48.9,145.7,49,144.5,49.5,144.2z"/>
	<path class="st11" d="M111.7,139.8c0,0-0.5,9.8,1.3,15.9l1.7-6.6L111.7,139.8z"/>
	<path class="st11" d="M124.4,69.7c0,0,12.1,1.9,17.6-1.7c0,0-9.6,1.7-16.9-1.2L124.4,69.7z"/>
	<polygon class="st11" points="169.9,141 172.3,151.5 167.7,148.9 	"/>
	<path class="st9" d="M71.7,66.6H24.9c-4.5,0-8.1,3.6-8.1,8.1l0,0c0,4.5,3.6,8.1,8.1,8.1h8.1h33c4.5,0,8.1,3.6,8.1,8.1l0,0"/>
	<path class="st9" d="M71.7,50.4h33c4.5,0,8.1,3.6,8.1,8.1l0,0c0,4.5-3.6,8.1-8.1,8.1h-33"/>
	<path class="st9" d="M76.9,50.4h-33c-4.5,0-8.1-3.6-8.1-8.1l0,0c0-4.5,3.6-8.1,8.1-8.1h71.4"/>
	<path class="st9" d="M115.3,18h33c4.5,0,8.1,3.6,8.1,8.1l0,0c0,4.5-3.6,8.1-8.1,8.1h-33"/>
	<path class="st9" d="M138.1,18h-33c-4.5,0-8.1-3.6-8.1-8.1l0,0"/>
	<line class="st9" x1="74.1" y1="99.1" x2="74.1" y2="90.9"/>
	<line class="st9" x1="97" y1="-0.5" x2="97" y2="9.9"/>
	<polygon class="st13" points="56.5,85 53.1,85 54.8,82 56.5,79 58.3,82 60,85 	"/>
	<polygon class="st13" points="67.1,47.9 70,47.9 68.6,50.4 67.1,52.9 65.7,50.4 64.2,47.9 	"/>
	<polygon class="st13" points="97,6 99.9,6 98.4,8.5 97,11 95.6,8.5 94.1,6 	"/>
	<polygon class="st13" points="90.1,57.6 80.7,57.6 85.4,49.4 90.1,41.2 94.9,49.4 99.6,57.6 	"/>
	<circle class="st13" cx="31.5" cy="66.4" r="9"/>
	<g>
		<line class="st9" x1="28" y1="63.4" x2="35" y2="63.4"/>
		<path class="st9" d="M29.7,63.4c0,0-0.3,5.4,5.3,7.6"/>
		<path class="st9" d="M33.3,63.4c0,0,0.3,5.4-5.3,7.6"/>
		<line class="st9" x1="31.5" y1="63.4" x2="31.5" y2="61.7"/>
	</g>
	<rect x="34.4" y="80.3" class="st13" width="5.1" height="5.1"/>
	<rect x="55" y="26.7" class="st13" width="15" height="15"/>
	
		<rect x="49.6" y="64.9" transform="matrix(0.7071 -0.7071 0.7071 0.7071 -32.067 55.8243)" class="st13" width="3.5" height="3.5"/>
	
		<rect x="138.8" y="32.4" transform="matrix(0.7071 -0.7071 0.7071 0.7071 16.9754 109.3784)" class="st13" width="3.5" height="3.5"/>
	
		<rect x="149.7" y="19.4" transform="matrix(0.7071 -0.7071 0.7071 0.7071 27.362 118.2514)" class="st13" width="13.4" height="13.4"/>
	<rect x="88.4" y="64.9" class="st13" width="3.5" height="3.5"/>
	<rect x="34" y="40.5" class="st13" width="3.5" height="3.5"/>
	<rect x="117.5" y="32.4" class="st13" width="3.5" height="3.5"/>
	<circle class="st13" cx="50.2" cy="50.4" r="2.2"/>
	<circle class="st13" cx="107.9" cy="34.2" r="2.2"/>
	<circle class="st13" cx="74.1" cy="92.8" r="2.2"/>
	<circle class="st13" cx="71.9" cy="66.6" r="3.5"/>
	<circle class="st13" cx="131.2" cy="18" r="3.5"/>
	<g>
		<polyline class="st9" points="86.1,53.9 90.1,46.9 94.2,53.9 		"/>
		<line class="st9" x1="87.6" y1="51.3" x2="92.7" y2="51.3"/>
	</g>
	<polygon class="st13" points="111.7,60.5 110.5,58.5 111.7,56.6 113.9,56.6 115,58.5 113.9,60.5 	"/>
	<polygon class="st13" points="112.1,19.9 110.9,18 112.1,16 114.3,16 115.4,18 114.3,19.9 	"/>
	<polygon class="st13" points="81.5,32.9 83.7,31.7 85.8,32.9 85.8,35.4 83.7,36.7 81.5,35.4 	"/>
	<g>
		<line class="st9" x1="60.6" y1="38.7" x2="60.6" y2="31.7"/>
		<line class="st9" x1="60.6" y1="31.7" x2="64.5" y2="38.7"/>
		<line class="st9" x1="64.5" y1="38.7" x2="64.5" y2="31.7"/>
		<path class="st9" d="M61,29.9c0.9-0.7,2.1,0.8,3.1,0"/>
	</g>
	<g>
		<path class="st9" d="M159.5,27.6c0,0.8-0.7,1.5-1.5,1.5l0,0c-0.8,0-1.5-0.7-1.5-1.5v-2.9c0-0.8,0.7-1.5,1.5-1.5l0,0
			c0.8,0,1.5,0.7,1.5,1.5V27.6z"/>
		<line class="st9" x1="154.3" y1="23.1" x2="154.3" y2="29.1"/>
		<line class="st9" x1="154.3" y1="26.1" x2="156.4" y2="26.1"/>
	</g>
	<g>
		<path class="st9" d="M39.8,119.4c0.3,1.7-0.9,3.1-2.6,3.1l0,0c-1.7,0-3.4-1.4-3.6-3.1l-0.6-4c-0.3-1.7,0.9-3.1,2.6-3.1l0,0
			c1.7,0,3.4,1.4,3.6,3.1L39.8,119.4z"/>
		<path class="st9" d="M39.4,116.5c-2.9,0-4.8-2-4.8-2s-0.6,1.3-1.6,1.3"/>
		<line class="st9" x1="38.1" y1="117.8" x2="38.1" y2="117.8"/>
		<line class="st9" x1="34.8" y1="117.8" x2="34.8" y2="117.8"/>
		<path class="st9" d="M38,120.6c-0.5,0.6-1.5,0.6-2.2,0"/>
		<line class="st9" x1="35.4" y1="126" x2="35.2" y2="121.9"/>
		<line class="st9" x1="39" y1="121.9" x2="40" y2="126"/>
		<polyline class="st9" points="44.6,128.7 49.7,141.7 30.7,141.7 31.7,128.8 		"/>
		<path class="st9" d="M31.7,128.8c0-1.6,1.3-2.9,3-2.9h0.8c0,0,0.9,1.5,2.5,1.5s2-1.5,2-1.5h0.8c1.7,0,3.3,1.2,3.9,2.9"/>
		<path class="st9" d="M55,138.8c0.3,1.6-0.9,2.9-2.5,2.9H27.9c-1.6,0-3.2-1.3-3.4-2.9l-4.7-29.6c-0.3-1.6,0.9-2.9,2.5-2.9h24.7
			c1.6,0,3.2,1.3,3.4,2.9L55,138.8z"/>
		<line class="st9" x1="33.9" y1="133.5" x2="34.4" y2="141.7"/>
		<line class="st9" x1="43.9" y1="133.5" x2="46" y2="141.7"/>
	</g>
	<path class="st9" d="M58.9,109.3h22.7c1.4,0,2.8,1.2,3,2.6c0.2,1.4-0.8,2.6-2.2,2.6H60.7l-3.3,2.1l-0.7-4.7
		C56.5,110.4,57.5,109.3,58.9,109.3z"/>
	<path class="st9" d="M61.8,129h14.7c1.4,0,2.8,1.2,3,2.6c0.2,1.4-0.8,2.6-2.2,2.6H63.5l-3.3,2.1l-0.7-4.7
		C59.3,130.2,60.3,129,61.8,129z"/>
	<path class="st9" d="M88.2,119.2H69.5c-1.4,0-2.4,1.2-2.1,2.6s1.7,2.6,3.1,2.6h17.7l4,2.1l-0.9-4.7
		C91.1,120.4,89.7,119.2,88.2,119.2z"/>
</g>
</svg>
