<?xml version="1.0" encoding="utf-8"?>
<!-- Generator: Adobe Illustrator 21.0.0, SVG Export Plug-In . SVG Version: 6.00 Build 0)  -->
<svg version="1.1" id="Layer_1" xmlns="http://www.w3.org/2000/svg" xmlns:xlink="http://www.w3.org/1999/xlink" x="0px" y="0px"
	 viewBox="0 0 200 200" style="enable-background:new 0 0 200 200;" xml:space="preserve">
<style type="text/css">
	.st0{fill:url(#SVGID_1_);}
	.st1{fill:url(#SVGID_2_);}
	.st2{fill:url(#SVGID_3_);}
	.st3{fill:url(#SVGID_4_);}
	.st4{fill:url(#SVGID_5_);}
	.st5{fill:url(#SVGID_6_);}
	.st6{fill:url(#SVGID_7_);}
	.st7{fill:url(#SVGID_8_);}
	.st8{fill:url(#SVGID_9_);}
	.st9{fill:none;stroke:#231F20;stroke-linecap:round;stroke-linejoin:round;stroke-miterlimit:10;}
	.st10{fill:#231F20;}
	.st11{fill:#231F20;stroke:#231F20;stroke-linecap:round;stroke-linejoin:round;stroke-miterlimit:10;}
	.st12{fill:#231F20;stroke:#231F20;stroke-miterlimit:10;}
	.st13{fill:#FFFFFF;stroke:#231F20;stroke-linecap:round;stroke-linejoin:round;stroke-miterlimit:10;}
	.st14{fill:none;stroke:#FFFFFF;stroke-linecap:round;stroke-linejoin:round;stroke-miterlimit:10;}
	.st15{fill:none;stroke:#231F20;stroke-linecap:round;stroke-miterlimit:10;}
	.st16{fill:none;stroke:#231F20;stroke-miterlimit:10;}
	.st17{fill:none;stroke:#FFFFFF;stroke-miterlimit:10;}
</style>
<path class="st9" d="M67.6,85.6l-3.1-11.8c-1.7-6.3,2.1-12.8,8.4-14.4l0,0c6.3-1.7,12.8,2.1,14.4,8.4l5.2,27.4l-17,1.5"/>
<line class="st9" x1="90.4" y1="95.7" x2="93.3" y2="114.3"/>
<line class="st9" x1="68.9" y1="90.5" x2="70.2" y2="106.1"/>
<path class="st9" d="M68.9,90.5c0,0-1.3,1.6-3.3,0.6c-2-1-4.5-6-2.5-7.6c1.9-1.5,4.5,2.2,4.5,2.2"/>
<line class="st9" x1="81.2" y1="115.4" x2="96.5" y2="128.3"/>
<line class="st9" x1="38" y1="78.8" x2="79.1" y2="113.6"/>
<line class="st9" x1="43" y1="83.1" x2="64.9" y2="75.3"/>
<line class="st9" x1="5.7" y1="177.7" x2="194.2" y2="177.7"/>
<line class="st9" x1="65.7" y1="76.6" x2="103.2" y2="64.8"/>
<path class="st9" d="M82.7,78.2c0,0,1.4,2.9,2.5,4.7c1.1,1.8-0.9,2.7-1.7,1.5"/>
<path class="st9" d="M70,75.3c0,0,1.5,5.3-1.4,6.8l0.8,2.8"/>
<circle class="st10" cx="75.6" cy="80.8" r="0.5"/>
<circle class="st10" cx="87.1" cy="77.7" r="0.5"/>
<path class="st9" d="M106.7,177.7c-49.8-49.6-79.5-85.7-87.1-95.2"/>
<path class="st9" d="M91.9,177.7l-63.2-63.3c-1.1-1.1-1.1-2.8,0-3.9l0,0c1.1-1.1,2.8-1.1,3.9,0l67.2,67.2"/>
<path class="st9" d="M83.9,88c-0.9,0.4-2,0-2.4-0.9"/>
<path class="st9" d="M73.9,78.2c0.4-0.9,1.4-1.3,2.3-0.9"/>
<path class="st9" d="M85.4,76.5c0.4-0.9,1.4-1.3,2.3-0.9"/>
<circle class="st9" cx="30.6" cy="112.5" r="0.8"/>
<line class="st9" x1="141.5" y1="115.9" x2="152.8" y2="116.7"/>
<line class="st9" x1="180.4" y1="128.3" x2="148.5" y2="89.5"/>
<line class="st9" x1="141" y1="136.2" x2="177.9" y2="134.9"/>
<line class="st9" x1="128.3" y1="136.7" x2="139.1" y2="136.3"/>
<line class="st9" x1="126.5" y1="123.9" x2="126.4" y2="123"/>
<line class="st9" x1="126.8" y1="126.9" x2="126.7" y2="126"/>
<line class="st9" x1="127" y1="128.7" x2="127" y2="128.5"/>
<polyline class="st9" points="135.4,146.4 128.3,140.7 127.2,130.5 "/>
<line class="st9" x1="173.8" y1="177.7" x2="137" y2="147.8"/>
<line class="st9" x1="141" y1="94.8" x2="157.8" y2="126"/>
<line class="st9" x1="135.9" y1="77.5" x2="142.5" y2="79.2"/>
<line class="st9" x1="135.8" y1="80.3" x2="141.6" y2="82.2"/>
<line class="st9" x1="135.7" y1="83.5" x2="139.8" y2="84.8"/>
<line class="st9" x1="95.1" y1="127.2" x2="98.8" y2="112.9"/>
<path class="st9" d="M60,93.8c0,0-14.9,3.5-19.7,17.9"/>
<path class="st9" d="M134.9,139c0,0,3.9-12.7,0-25.7"/>
<path class="st9" d="M177.9,134.9c4-0.1,5.2-3.5,2.6-6.6"/>
<path class="st9" d="M22.3,73.6c-4.4,1.2-7.1,3.6-2.7,8.9"/>
<path class="st9" d="M22.3,73.6c8-2.1,22-5.2,42.9-7.8"/>
<line class="st9" x1="64.7" y1="177.7" x2="78.3" y2="164.1"/>
<line class="st9" x1="74.9" y1="160.6" x2="57.8" y2="177.6"/>
<polyline class="st9" points="148,91.4 150.4,76.7 149.4,71.8 149.7,68 148.3,67.7 "/>
<path class="st9" d="M147.5,76.2l-11-1.4l-0.5,2.2l-0.5,9l2.1,0.9c0,0-0.3,7.1,3.4,8"/>
<path class="st11" d="M81.8,69.1c-1.2-4.3-5.6-6.9-9.9-5.7c-4.3,1.2-6.9,5.6-5.7,9.9l0.3,1.2l15.4-4.8L81.8,69.1z"/>
<path class="st11" d="M70.1,75.7c0,0,11.4-1.8,18-4l-0.4-1.9L70.1,75.7z"/>
<path class="st11" d="M75.5,96.7c0,0,7.2,3.9,15.6,3.3l-0.7-4.7L75.5,96.7z"/>
<path class="st9" d="M135.7,86l-1.1,5.8c-0.1,0.5,0.3,0.9,0.9,0.8l2.8-0.6"/>
<path class="st9" d="M146.7,76.1l2.6-13.7c0.1-0.5-0.3-0.9-0.9-0.8l-7.3,1.5c-0.6,0.1-1.1,0.7-1.2,1.2l-2.1,10.7"/>
<path class="st11" d="M142.1,64.7c-0.2,0-0.4,0.3-0.5,0.4l-1.9,10.1l7,0.9l2.4-12.8L142.1,64.7z"/>
<polygon class="st10" points="137,86.6 135.9,92.5 138.1,92.1 137.6,86.9 "/>
<line class="st14" x1="142.5" y1="65.6" x2="143.9" y2="65.3"/>
<polygon class="st11" points="38.9,79.6 49.4,80.8 43.8,82.8 "/>
<polygon class="st11" points="148.5,116.4 156.4,123.5 152.8,116.7 "/>
<polygon class="st11" points="70.8,164.7 71.5,170.9 78.3,164.1 74.9,160.6 "/>
<line class="st11" x1="74" y1="126.4" x2="76.1" y2="131.3"/>
<line class="st9" x1="71.2" y1="126" x2="73.4" y2="129.3"/>
<g>
	<line class="st9" x1="139.6" y1="128.4" x2="139.6" y2="94.2"/>
	<path class="st16" d="M79.1,98.1C79,92.6,74.5,88,68.9,88h-1.3"/>
</g>
<circle class="st16" cx="66.5" cy="88" r="1.1"/>
<path class="st17" d="M79.7,95.3c0.2,0.9,0.4,1.8,0.4,2.8v1.5"/>
<circle class="st9" cx="167.2" cy="30.8" r="19.8"/>
<polygon class="st9" points="42,154 28.3,154 29.3,177.6 41,177.6 "/>
<line class="st9" x1="30.6" y1="160.7" x2="39.7" y2="160.7"/>
<path class="st9" d="M37.9,156.3c0.8,1.4,2.3,2.4,4.1,2.4c2.6,0,4.7-2.1,4.7-4.7s-2.1-4.7-4.7-4.7s-4.7,2.1-4.7,4.7"/>
<line class="st9" x1="31" y1="154" x2="30" y2="147.5"/>
<line class="st9" x1="32" y1="160.7" x2="31.4" y2="156.6"/>
<line class="st9" x1="34" y1="174.5" x2="32.4" y2="163.3"/>
<line class="st9" x1="30" y1="147.5" x2="21.3" y2="144.6"/>
<g>
	<g>
		<path class="st9" d="M10.7,123.9c1.5,0.7,3.2,1.1,5,1.1s3.5-0.4,5-1.1"/>
		<path class="st9" d="M20.7,123.9c1.5,0.7,3.2,1.1,5,1.1"/>
		<path class="st9" d="M5.7,125c1.8,0,3.5-0.4,5-1.1"/>
	</g>
	<g>
		<path class="st9" d="M30.7,123.9c1.5,0.7,3.2,1.1,5,1.1c1.1,0,2.1-0.1,3.1-0.4"/>
		<path class="st9" d="M25.7,125c1.8,0,3.5-0.4,5-1.1"/>
	</g>
	<g>
		<path class="st9" d="M177.5,124.8c1-0.2,1.9-0.5,2.8-0.9"/>
		<path class="st9" d="M180.3,123.9c1.5,0.7,3.2,1.1,5,1.1"/>
	</g>
	<g>
		<path class="st9" d="M190.3,123.9c1.5,0.7,3.2,1.1,5,1.1"/>
		<path class="st9" d="M185.3,125c1.8,0,3.5-0.4,5-1.1"/>
	</g>
</g>
<g>
	<path class="st9" d="M179.6,145.7c1.8,0,3.5-0.4,5-1.1"/>
	<path class="st9" d="M184.6,144.7c1.5,0.7,3.2,1.1,5,1.1"/>
</g>
<g>
	<path class="st9" d="M9.9,167.3c1.8,0,3.5-0.4,5-1.1"/>
	<path class="st9" d="M14.9,166.2c1.5,0.7,3.2,1.1,5,1.1"/>
</g>
<g>
	<path class="st9" d="M182.8,167.5c1.8,0,3.5-0.4,5-1.1"/>
	<path class="st9" d="M187.8,166.5c1.5,0.7,3.2,1.1,5,1.1"/>
</g>
<g>
	<path class="st9" d="M159.5,157.8c1.8,0,3.5-0.4,5-1.1"/>
	<path class="st9" d="M164.5,156.8c1.5,0.7,3.2,1.1,5,1.1"/>
</g>
<g>
	<path class="st9" d="M32.3,138c1.8,0,3.5-0.4,5-1.1"/>
	<path class="st9" d="M37.3,136.9c1.5,0.7,3.2,1.1,5,1.1"/>
</g>
<g>
	<g>
		<polyline class="st9" points="69.4,35.4 72.6,25.7 75.9,35.4 		"/>
		<line class="st9" x1="70.6" y1="31.8" x2="74.7" y2="31.8"/>
	</g>
	<path class="st9" d="M84.6,28.5v-7H66.9c-5,0-9.1,4.1-9.1,9.1s4.1,9.1,9.1,9.1h17.8v-7l4.2,1.8v-7.7L84.6,28.5z"/>
	<path class="st9" d="M84.6,39.6h23.2l6.2,4.9V30.6c0-5-4.1-9.1-9.1-9.1H84.6"/>
	<g>
		<line class="st9" x1="96.9" y1="27.5" x2="104.1" y2="27.5"/>
		<path class="st9" d="M98.6,27.5c0,0-0.3,5.6,5.5,7.9"/>
		<path class="st9" d="M102.4,27.5c0,0,0.3,5.6-5.5,7.9"/>
		<line class="st9" x1="100.5" y1="27.5" x2="100.5" y2="25.7"/>
	</g>
</g>
<path class="st9" d="M139.6,118.4v12.6c0,16.7-13.5,30.2-30.2,30.2l0,0c-16.7,0-30.2-13.5-30.2-30.2V98.1"/>
<line class="st9" x1="93" y1="112.5" x2="139.6" y2="115.8"/>
</svg>
