<svg id="Layer_6" xmlns="http://www.w3.org/2000/svg" viewBox="0 0 738 543"><style>.st0{opacity:.2;enable-background:new}.st0,.st1{fill:#ffefbe}.st2{stroke-width:6}.st2,.st3,.st4{fill:none;stroke:#fff;stroke-linecap:round;stroke-linejoin:round}.st3{stroke-width:6.57}.st4{stroke-width:5.72}.st5{fill:#fbe4d7}.st6{opacity:7e-2;enable-background:new}.st7,.st8,.st9{fill:none;stroke-width:5;stroke-linecap:round;stroke-linejoin:round;stroke:#3c4249}.st8,.st9{fill:#c39a6f;stroke-width:4.16}.st9{fill:none;stroke:#e4c1a0}.st10{fill:#d5b7a6}.st11{fill:#b7dff2}.st12{fill:#fbe4d7;stroke-linecap:round;stroke-linejoin:round}.st12,.st13{stroke:#3c4249;stroke-width:4}.st13,.st14,.st15{fill:none;stroke-linecap:round;stroke-linejoin:round}.st14{opacity:7e-2;enable-background:new;stroke:#000;stroke-width:4}.st15{stroke:#3c4249;stroke-width:3}.st16{opacity:.1;fill:#bc2132;enable-background:new}.st17,.st18{fill:#88bfe0}.st18,.st19{stroke:#3c4249;stroke-width:5;stroke-linecap:round;stroke-linejoin:round}.st19{fill:none;stroke-width:4.86}.st20{fill:#e1e8ee}.st21{fill:#fbe4d7;stroke:#3c4249;stroke-width:5.01;stroke-linecap:round;stroke-linejoin:round}.st22{opacity:.1;enable-background:new}.st23{fill:#e9cdc0}.st24{fill:none;stroke:#fff;stroke-width:3.94;stroke-linecap:round;stroke-linejoin:round}.st25{fill:#e2eaf0}.st26{fill:#fff;stroke:#3c4249;stroke-width:4.93;stroke-linecap:round;stroke-linejoin:round}.st27{fill:#4f98cf}.st28{fill:#e5ebef}.st29{fill:none;stroke:#3c4249;stroke-width:3.62;stroke-linecap:round;stroke-linejoin:round}.st30{fill:#3677a0}.st31,.st32{fill:#e5ebed}.st32{stroke:#3c4249;stroke-width:4.93;stroke-linecap:round;stroke-linejoin:round}.st33{fill:#fff}.st34{fill:#b6c3c6}.st35{fill:none;stroke:#3c4249;stroke-width:4.93;stroke-linecap:round;stroke-linejoin:round}.st36{fill:#78c062}.st37{fill:#f3c96d;stroke:#3c4249;stroke-width:4.44;stroke-linecap:round;stroke-linejoin:round}</style><title>Artboard 1 copy 5</title><path class="st0" d="M250.2 106.9c-.2.2-.5.4-.7.7l.1-.1.6-.6z"/><path class="st1" d="M477.5 358.3c-7.3-14.1-18-24.7-30.4-34.5-4.9-3.8-9.7-7.8-14.2-12-.3-.3-.8-.9-1.2-1.3-.6-.7-1.1-1.4-1.7-2.1-.8-1.1-1.5-2.3-2.3-3.4-.1-.2-.2-.5-.3-.7-.3-1.3-.7-2.5-1.2-3.7-.1-.4-.1-.8-.2-1.1s0-1-.1-1.6c.3-1.5.4-4.4.5-5s1-3.5 1-3.8c.4-.9.7-1.8.9-2.1 1.4-3.2 2.9-7.4 5.2-10-.1.1-2.2 3.1-.6 1.1.5-.7 1-1.5 1.5-2.2 1.2-1.7 2.5-3.4 3.7-5 2.4-3 4.8-6 7.3-9 4.7-5.7 9.3-11.4 13.4-17.4 9.5-14.1 17.3-29.2 20.5-46.1 2.9-15.4 1.9-32.5-4.2-47.2-7-17.1-19.5-28.8-35.1-38.3-13.3-8.1-27.7-14.6-41.5-21.8l-22.3-11.4c-3.4-1.8-6.8-3.7-10.2-5.4-2.7-1.9-5.5-3.7-8.4-5.4-3-1.8-6.1-3.4-9.4-4.8-1.6-.7-3.2-1.3-4.8-1.8-1.5-.5-3-.9-4.4-1.4-.8-.3-3.8-1.5-4.5-1.7-16-3.3-33.4 2.4-46.5 11.4-10.9 7.4-19.9 17.5-28.8 27l-6 6.3c-1 1-2 2-3.1 3l-.2.2c.4-.4.5-.4-.6.5h-.1l-.4.3.3-.3c-4.5 3.8-9.1 7.5-13.9 11-10.6 7.9-21.2 15.7-30.8 24.8-10.5 10-18.2 22.5-22.2 36.4-9.1 31.3 7.3 61.8 15.6 91.2.5 1.7.9 3.4 1.3 5-1-3.5 0-.1.3 1.5.7 3.7 1.1 7.4 1.4 11.1.3 3.4.4 6.9.4 10.3 0 .5-.1 3-.1 3.7v.4c-.1 1.1-.2 2.3-.3 3.4-.8 7.4-2.3 14.8-4.3 21.9l-.2.8c-.1.2-.2.5-.3.9l-1.8 4.8c-1.4 3.5-3 6.8-4.7 10.1-7.3 14.3-15.7 29.9-13 46.5 2.7 17.1 14.5 31.2 27.6 41.9 23.4 19 54.7 25.8 82.3 11.9 10.9-5.5 20.5-12.4 30.1-19.8 4.3-3.3 8.5-6.7 13-9.8 2.1-1.5 4.2-2.9 6.3-4.3 1.1-.7 2.1-1.3 3.2-2l.4-.2c2.2-1 4.4-2 6.6-2.8 1.1-.4 2.3-.7 3.4-1.1h.1c1-.1 8-1.4 8.4-.6.1.3-4-.6-1.4 0 .8.2 1.6.2 2.4.3 1.9.3 3.7.7 5.5 1.2l.8.2.4.2c1.5.7 3.1 1.2 4.6 1.8 3.3 1.4 6.6 3 9.8 4.6 6.2 3.1 12.4 6.4 18.8 9.1 9.5 4.1 19.6 6.5 29.9 7 4-.8 8.1-1.2 12.2-1 3.4-1.2 6.7-2.7 10-4.2 8.3-4.4 16.3-9.4 23.9-14.9.4-.6.9-1.2 1.3-1.9 9.7-14.7 9.4-33.3 1.4-48.7z"/><path class="st0" d="M508.2 442.5l.2.1c.4-1.8.9-3.6 1.5-5.4-.2.7-.5 1.5-.8 2.2-.3 1-.6 2.1-.9 3.1z"/><circle class="st2" cx="396.5" cy="127.5" r="8.3"/><circle class="st2" cx="232.2" cy="357" r="8.2"/><path class="st3" d="M326.1 192.4l17.3 26.5"/><path class="st4" d="M295.5 115l-20.4 11.9M437 170.1l5.9 22.9m-234.5 30.7l5.9 22.9m96.6 67.7l-20.4 11.9"/><path class="st5" d="M372.3 379.1v49l97.1-2.2c14.6 0 24.8-13.2 28.2-27.4 4.5-18.9 39-112.3 39-112.3l-39.9-3-40.7 91.2c.7 2.6-13.8 4.7-16.5 4.7h-67.2z"/><path class="st6" d="M436.6 426.5l6.7.1v-49.9l-6.4 1.7-.3 48.1z"/><path class="st7" d="M494.8 287.5l41.7-1.4S506.6 369 498.9 391c-4.8 13.8-12.3 33.4-29.6 34.8l-97.1 2.2v-49l67.2-.8c3.2 0 13.8 2.4 17.5-6.9 10.3-26.2 37.9-83.8 37.9-83.8z"/><path class="st5" d="M402.4 432.5l-20 72.4H261.8v-72.4c0-30.2 5.1-54.9 35.3-54.9h7.9c4.3 0 7.7-3.5 7.7-7.7v-27.6H348v27.6c0 4.3 3.5 7.7 7.7 7.7h8.8c30.3-.1 37.9 24.7 37.9 54.9z"/><path class="st8" d="M399.2 173.6c-5.8-7.4-11-9.4-16.4-12.3-15-8.3-23-25.3-38.6-26.9-23.5-2.5-28.3 15-59.6 29.5-19.5 9-20.6 10.3-27.4 17.3-20.7 21.1.1 77.3.1 77.3l24.1-26.7 107.4 5.5 12.3 21.2c1.9.3 15.6-62.5-1.9-84.9z"/><path class="st9" d="M298.5 178.1s19.2-6.9 35-29.3M317 178.1s10.5-8.6 15.5-13.9m5.7-3.1s4.7-4 7.4-12.3m-12.9 29.3s13.9-6.9 18.1-19.7m-85.2 28.8c1.9-2.1 4.1-4 6.4-5.6m-17.2 28.6c1.2-6.4 3.5-12.5 7-18m123.9-16.7c-2-2-4.3-3.8-6.8-5.2m18.1 24.3s-1.1-5.8-7.3-14.3"/><path class="st10" d="M330.4 357c-13.2 0-17.7-7.2-17.7-7.2V344H348v5.8c0 .1-4.5 7.2-17.6 7.2zm34.2 23.5h-.4v1.5c0 18.4-15 33.4-33.4 33.4s-33.4-15-33.4-33.4v-1.5h-.4c-30.2 0-35.3 24.7-35.3 54.9v72.4h120.7l20-72.4c0-30.1-7.6-54.9-37.8-54.9z"/><path class="st7" d="M364.6 377.5h-8.8c-4.3 0-7.7-3.4-7.7-7.7v-27.6h-35.3v27.6c0 4.3-3.5 7.7-7.7 7.7h-7.8c-30.2 0-35.6 24.7-35.6 54.9v72.4h121l21.4-77.7c-.3-30.2-9.3-49.6-39.5-49.6z"/><g id="_Group_"><path class="st5" d="M402.4 238.6v42.9c-.1 35.7-29 64.6-64.7 64.7h-15.1c-35.7-.1-64.6-29-64.7-64.7v-44.3c0-6.1 3.1-16.9 7.6-26.3s10.7-17.2 16.7-17.2c0 0 24.8 9.7 50.8 9.7 24.2 0 49.7-9.7 49.7-9.7 12.1 0 19.7 32.8 19.7 44.9z"/><path class="st10" d="M402.4 230.6l-16.6-21.5c-3.3-4.2-8.6-6.4-13.9-5.5l-22.3 6.2c-1.8.5-3.6.9-5.5 1.2-8.9 1.2-18 1.2-26.9.1-2.3-.3-4.6-.8-6.9-1.4l-21-6.1c-5-.8-10 1-13.3 4.8l-18.2 20.9c0-6.1 5.1-12.8 9.6-22.2s8.6-13.4 14.7-13.4c0 0 24.8 9.7 50.8 9.7 24.2 0 51.7-10.5 51.7-10.5 12.2.1 17.8 25.6 17.8 37.7zm-72 102.4c61.3 0 72.1-51.4 72.1-51.4-.1 35.7-29 64.6-64.7 64.7h-15.1c-35.7-.1-64.6-29-64.7-64.7-.1 0 10.8 51.4 72.4 51.4z"/><path class="st7" d="M337.7 346.2h-15.1c-35.7-.1-64.6-29-64.7-64.7v-44.3c0-6.1 3.1-16.9 7.6-26.3s10.7-17.2 16.7-17.2c0 0 24.8 9.7 50.8 9.7 24.2 0 49.7-9.7 49.7-9.7 12.1 0 19.7 32.8 19.7 44.9v42.9c-.1 35.7-29 64.6-64.7 64.7z"/></g><path class="st11" d="M290.4 379.1c-3.8.6-7.5 1.7-11.1 3.1 0 27.2 23.1 49.2 51.6 49.2s51.6-22 51.6-49.2v-.4c-3.3-1.3-6.7-2.2-10.1-2.8-.8 22.6-19.8 40.3-42.4 39.5-21.6-.6-38.9-17.9-39.6-39.4z"/><path class="st7" d="M373.5 378.3c-.4 23.6-19.8 42.4-43.3 42-23-.4-41.6-19-42-42-26 4.3-26.7 27-26.7 54.2v72.4h121l18.5-78.4c-.1-27.2-1.5-43.9-27.5-48.2z"/><path class="st12" d="M293.1 246.7c3.2-5.6 10.4-7.5 15.9-4.3 1.8 1 3.2 2.5 4.3 4.3m30.9 0c3.2-5.6 10.4-7.5 15.9-4.3 1.8 1 3.2 2.5 4.3 4.3"/><path class="st13" d="M333 267.9s1.8 8 4.8 11.3c0 0-5.1 4.3-9.7 4.3m-20.4 14.8s2.7 10.7 17 11.8"/><path class="st14" d="M324.6 389.9l6.7 6 5.8-6"/><path class="st15" d="M292.1 414.8c-1.9-2-3.6-4.1-5.2-6.4m37.7 22.8c-8.7-1-17-4.2-24.2-9.2m73-11.6c-9.1 12.1-22.9 19.7-38 21m43-29.1c-.7 1.5-1.5 2.9-2.4 4.2m6.5-15c-.5 2-1.1 4-1.9 6m-97.8 3.9c-1.1-2.2-2-4.5-2.7-6.9"/><path class="st6" d="M335.2 268.4s3.9 4.9 6.6 9.3c1.4 2.4.7 5.4-1.7 6.9-.3.2-.5.3-.8.4-3.1 1.1-7.3 1.9-11 0l9.7-5.7-2.8-10.9z"/><circle class="st16" cx="370.4" cy="281.2" r="12.1"/><circle class="st16" cx="292.1" cy="281.2" r="12.1"/><path class="st17" d="M243.1 432.5v31.4l39.7 2.5-.8 38.6 100.4.5s18.9-76.2 18.5-79h35.7l.3-48.2h-62.4c-.4 23.6-19.8 42.4-43.3 42-23-.4-41.6-19-42-42-26.6 4.4-46 27.3-46.1 54.2z"/><path class="st11" d="M290.3 380.4c-3.9.6-8.9-2.5-12.5-1.1 0 27.2 24.5 53.4 53 53.4s51.6-22 51.6-49.2v-.4c-3.3-1.3-6.7-2.2-10.1-2.8-.8 22.6-19.8 40.3-42.4 39.5-21.5-.6-38.8-17.9-39.6-39.4z"/><path class="st7" d="M289.1 378.3c.4 23.6 19.8 42.4 43.3 42 23-.4 41.6-19 42-42h62.4l-.3 48.2-35.7.9c.3 1.9.4 3.8.2 5.7l-20 72.4-99.1-.6v-40.5l-38.9-.5v-31.4c.2-26.9 19.6-49.8 46.1-54.2z"/><path class="st18" d="M437.7 426.5l-58.4 1.1m-97 15.3v62"/><path class="st15" d="M292 416.2c-1.9-2-3.6-4.1-5.2-6.4m37.8 22.7c-8.7-1-17-4.2-24.2-9.2m73-11.6c-9.1 12.1-22.9 19.7-38 21m43-29c-.7 1.5-1.5 2.9-2.4 4.2m6.5-15.1c-.5 2-1.1 4-1.9 6m-97.8 3.9c-1.1-2.2-2-4.5-2.7-6.9"/><g id="_Group_2"><path class="st5" d="M243.4 464.4h38.9v41h-38.9v-41z"/><path class="st10" d="M243.4 464.4h38.9v9.5h-38.9v-9.5z"/><path class="st19" d="M243.4 464.4h38.9v41h-38.9v-41z"/></g><path class="st6" d="M376 428.3s4.8 6.4 6.4 36.2c-.5 13.7-1.8 27.4-4 41l10.6 2.7 10-72.4c.1-2.6.1-5.1-.2-7.7l-22.8.2z"/><path class="st20" d="M487 492.7c-22.9-2.2-45.8.8-68.5 3.5-11.2 1.3-22.5 2.6-33.8 3.1-5.3.2-10.6.3-16 0-5.1-.2-10.2-.7-15.2-1.4-23.1-3.7-45.6-10.7-68.9-13.3s-47.1.7-69.9 6c-12.4 2.9-10.7 6.4-23 9.9-3.1.9-6.1 1.8-9.2 2.7-1.2.3-2.4.7-3.5 1-.4.1-2.1.3-2.7.4h-.1c-3.9-4.9-10-7.9-16.6-5.8-7.6 2.5-14.4 11.3-11.2 19.7 4.6 12.1 15.2 18.6 28.2 18.1 11.5-.5 22.8-5 33.8-8.1 23.1-6.6 31.4-12.3 54.5-12.8 23.4-.5 44.6 6 68.3 10.9 24.5 5 48.4 5.7 73.1 3 26.8-2.8 53.6-7.5 80.7-4.9 8.4.8 16.4-7.9 16-16-.4-9.3-7.1-15.1-16-16z"/><path class="st21" d="M539.6 254.2c-3-.9-9.2-.2-11.4-.9-2-.6-4.2-.1-5.8 1.4-.8-1.1-1.9-1.8-3.1-2.2-3.2-.9-7.9.9-8.8 4.1l-5 16.2c-.6.1-1.2.2-1.8.4-4 1.4-6.4-1.2-8.3-4.9l-5.3-13.3c-1.5-3.2-6.7-3.7-9.9-1.8-2.6 1.6.3 1.3 1.1 6 0 0 1.8 36.1 31.4 34.6 8.4-.4 15.9-1.9 20.3-4.9 1.9-.6 3.4-2.1 3.9-4l6.8-23.3c1-3.1-.8-6.4-4.1-7.4.1 0 .1 0 0 0z"/><path class="st7" d="M425.6 508.2h38.8m-127.1 0h71.3"/><path class="st5" d="M491.1 301.3s5.9-11.9 4.9-16.4 38.5-1.5 38.5-1.5l-6.4 18.8-37-.9z"/><path class="st7" d="M206.1 508.2h96.8"/><ellipse class="st16" cx="513.8" cy="287.4" rx="13.6" ry="8.2"/><path class="st5" d="M487.6 274.3l9.1 12.7.4-7.4-5.2-11.3-4.3 6zm23.9-7.5l-4.6 9.9 6-1.1 2.3-8.4-3.7-.4z"/><path class="st22" d="M486.9 255.7s2 23.3 14.2 20.3l-10.7-19.7-3.5-.6z"/><path class="st5" d="M520.6 267.1l-2.5 8.7 6.3.3 2.6-9.1-6.4.1zm10.5 4.1l-2.5 8.7 1.9 15.6 7.5-22.8-6.9-1.5z"/><path class="st22" d="M516.3 274.1c-1.1 0-2-.9-2-2 0-.2 0-.3.1-.5l4.1-15.6c.2-1.1 1.3-1.8 2.4-1.5 1.1.2 1.8 1.3 1.5 2.4v.1l-4.1 15.6c-.3.9-1.1 1.5-2 1.5zm7.5 1c-1.1 0-2-.9-2-2 0-.2 0-.4.1-.6l5.2-17.1c.3-1.1 1.4-1.7 2.5-1.3s1.7 1.4 1.3 2.5l-5.2 17.1c-.2.8-1 1.4-1.9 1.4zm8.8-1.9c-1.1 0-2-.9-2-2 0-.2 0-.4.1-.6l4.8-15.2c.3-1.1 1.5-1.6 2.5-1.3s1.6 1.5 1.3 2.5l-4.8 15.2c-.3.8-1.1 1.4-1.9 1.4z"/><path class="st13" d="M519.4 256.5l-4.1 15.6M528 256l-5.2 17.1m13.5-17.1l-4.8 15.2"/><path class="st23" d="M510.1 305.9c1 1 2.2 2 3.5 2.7 2.2 1.3 3.6 3.7 3.5 6.3 0 9.9-1.4 19.7-4.2 29.1l15.8-43.4s-4 6.5-17.2 2.9c-.7-.2-1.5.2-1.7 1-.2.5-.1 1 .3 1.4z"/><path class="st24" d="M472.6 370.2l-2.2 5.4m8.1-19.9l-2.9 7.2m17.9-44.6l-6.3 15.8"/><path class="st25" d="M630.6 184.2l-14.5-12.5c-.4-.4-1-.6-1.6-.6h-3.3l6.6-24.3c.3-1.3-.4-2.6-1.7-3l-69.5-18.7c-1.3-.3-2.6.4-3 1.7l-2.4 8.8-10.1-22.5c-.6-1.2-2-1.8-3.2-1.2l-65.6 29.6c-1.2.6-1.8 2-1.2 3.3l12 26.3h-27.8c-1.4 0-2.5 1.1-2.5 2.5v8.7h-10.7c-1.4 0-2.5 1.1-2.5 2.5v25c0 1.4 1.1 2.5 2.5 2.5h10.7v38.9c0 1.4 1.1 2.5 2.5 2.5h71.6c1.4 0 2.5-1.1 2.5-2.5v-.3H555v.3c0 1.4 1.1 2.5 2.5 2.5H629c1.4 0 2.5-1.1 2.5-2.5v-65c0-.8-.3-1.5-.9-2z"/><path class="st1" d="M571.3 167.5c-13.5 1.6-24.7 11.2-28.3 24.4-.8 3 1.5 6.1 4.2 7 3.2 1 5.8-.6 7.5-3.2 4-6.2 10.6-10.4 18-11.4 10.7-1.6 9.5-17.9-1.4-16.8z"/><path class="st26" d="M547.6 179.7l-65.2 29.6-32.1-70.6 65.6-29.6 31.7 70.6z"/><path class="st26" d="M582.2 215.8L513 197.3l20-74.9 69.5 18.7-20.3 74.7z"/><ellipse transform="rotate(-75.001 544.414 141.805)" class="st27" cx="544.4" cy="141.8" rx="4.3" ry="4.3"/><path class="st28" d="M556.2 145.9l25.8 6.9c1.2.3 2 1.6 1.6 2.9-.3 1.2-1.6 2-2.9 1.6l-25.8-6.9c-1.2-.3-2-1.6-1.6-2.9.4-1.2 1.7-1.9 2.9-1.6z"/><ellipse transform="rotate(-75.043 541.429 158.109)" class="st27" cx="541.4" cy="158.1" rx="4.3" ry="4.3"/><path class="st28" d="M553 158.8l25.8 6.9c1.2.3 2 1.6 1.6 2.9-.3 1.2-1.6 2-2.9 1.6l-25.8-6.9c-1.2-.3-2-1.6-1.6-2.9.4-1.2 1.7-2 2.9-1.6z"/><ellipse transform="rotate(-75.001 537.15 169.458)" class="st27" cx="537.1" cy="169.5" rx="4.3" ry="4.3"/><path class="st28" d="M549.3 172.6l25.8 6.9c1.2.3 2 1.6 1.6 2.9-.3 1.2-1.6 2-2.9 1.6l-25.8-6.9c-1.2-.3-2-1.6-1.6-2.9.4-1.2 1.7-1.9 2.9-1.6z"/><ellipse transform="rotate(-75.043 534.03 185.808)" class="st27" cx="534" cy="185.8" rx="4.3" ry="4.3"/><path class="st28" d="M545.6 186.5l25.8 6.9c1.2.3 2 1.6 1.6 2.9-.3 1.2-1.6 2-2.9 1.6l-25.8-6.9c-1.2-.3-2-1.6-1.6-2.9.4-1.2 1.7-2 2.9-1.6z"/><path class="st26" d="M616 246.1h-71.6v-77.5h57.2l14.4 12.5v65z"/><path class="st29" d="M569.8 226.2v-31.3l24.9-9.6v31.4"/><path class="st27" d="M594.8 185.3v10.3l-24.9 9.4v-10.1l24.9-9.6z"/><circle class="st27" cx="563.7" cy="226.5" r="6.2"/><path class="st30" d="M563.7 228c3.4 0 6.2-1.8 6.2-1.4-.1 3.4-3 6-6.4 5.9-3.2-.1-5.8-2.7-5.9-5.9 1.9.9 4 1.4 6.1 1.4z"/><circle class="st29" cx="563.7" cy="226.5" r="6.2"/><path class="st29" d="M594.8 195.6l-24.9 9.4v-10.1l24.9-9.6v10.3z"/><circle class="st27" cx="588.6" cy="217.5" r="6.2"/><path class="st30" d="M588.6 218.9c3.4 0 6.2-1.8 6.2-1.4-.1 3.4-3 6-6.4 5.9-3.2-.1-5.8-2.7-5.9-5.9 1.9.9 4 1.4 6.1 1.4z"/><circle class="st29" cx="588.6" cy="217.5" r="6.2"/><path class="st31" d="M508.8 171.8l1.6 3.1c.6 1.1.2 2.6-.9 3.2-1 .6-2.3.3-3-.6-.1-.1-.2-.3-.3-.4l-9.1-16.7c-.3-.5-.3-1.1-.2-1.7v-.1c.4-1.2 1.7-2 2.9-1.6.6.2 1.1.6 1.4 1.1.5 1 1.7 1.3 2.7.8s1.3-1.7.8-2.7c-1.7-3.1-5.5-4.2-8.6-2.6s-4.2 5.5-2.6 8.6l9.1 16.8c.7 1.2 1.7 2.2 3 2.8l.1.1h.1l.5.2c.2.1.4.1.6.1h.3l.4.1h1.3c2.6-.3 4.7-2.1 5.4-4.5.1-.2.1-.4.2-.6.3-1.4.1-2.9-.7-4.2l-1.7-3.1c-.5-1-1.7-1.3-2.7-.8s-1.2 1.6-.6 2.7z"/><path class="st31" d="M494.3 138.5c-3.1 1.7-4.2 5.5-2.6 8.6l1.8 3.3c.5 1 1.7 1.3 2.7.8s1.3-1.7.8-2.7l-1.8-3.3c-.6-1.1-.2-2.6 1-3.2 1.1-.6 2.6-.2 3.2 1l9.1 16.7c.1.1.1.3.2.4.2.5.1 1.1-.1 1.6v.1c-.1.1-.1.2-.2.3v.1c-.1.1-.2.2-.2.3l-.1.1c-1 .8-2.5.7-3.3-.3-.1-.1-.2-.3-.3-.4-.5-1-1.7-1.3-2.7-.8s-1.3 1.7-.8 2.7c1.7 3.1 5.5 4.2 8.6 2.6.2-.1.4-.2.6-.4l.1-.1.4-.3.1-.1.4-.4.1-.1c.1-.1.2-.3.3-.4l.1-.1c.1-.2.2-.3.3-.5v-.1l.3-.6v-.1c.1-.2.2-.5.2-.7.1-.2.1-.4.2-.6.1-.7.1-1.4 0-2.1 0-.3-.1-.6-.2-.9v-.2c-.1-.3-.3-.7-.4-1l-9.1-16.8c-1.8-3-5.6-4.1-8.7-2.4z"/><path class="st27" d="M505.6 172.2l1.6 3.1c.6 1.1.2 2.6-.9 3.2-1 .6-2.3.3-3-.6-.1-.1-.2-.3-.3-.4l-9.1-16.7c-.3-.5-.3-1.1-.2-1.7v-.1c.4-1.2 1.7-2 2.9-1.6.6.2 1.1.6 1.4 1.1.5 1 1.7 1.3 2.7.8s1.3-1.7.8-2.7c-1.7-3.1-5.5-4.2-8.6-2.6s-4.2 5.5-2.6 8.6l9.1 16.7c.7 1.2 1.7 2.2 3 2.8l.1.1h.1l.5.2c.2.1.4.1.6.1h.3l.4.1h1.2c2.6-.3 4.7-2.1 5.4-4.5.1-.2.1-.4.1-.6.3-1.4.1-2.9-.6-4.2l-1.6-3.1c-.5-1-1.7-1.3-2.7-.8s-1.1 1.7-.6 2.8z"/><path class="st27" d="M491.1 138.9c-3.1 1.7-4.2 5.5-2.6 8.6l1.8 3.3c.5 1 1.7 1.3 2.7.8s1.3-1.7.8-2.7l-1.8-3.3c-.6-1.1-.2-2.6 1-3.2 1.1-.6 2.6-.2 3.2 1l9.1 16.7c.1.1.1.3.2.4.2.5.1 1.1-.1 1.6v.1c-.1.1-.1.2-.2.3v.1c-.1.1-.2.2-.2.3l-.1.1c-1 .8-2.5.7-3.3-.3-.1-.1-.2-.3-.3-.4-.5-1-1.7-1.3-2.7-.8s-1.3 1.7-.8 2.7c1.7 3.1 5.5 4.2 8.6 2.6.2-.1.4-.2.6-.4l.1-.1.4-.3.1-.1.4-.4.1-.1c.1-.1.2-.3.3-.4l.1-.1c.1-.2.2-.3.3-.5v-.1l.3-.6v-.1c.1-.2.2-.5.2-.7.1-.2.1-.4.1-.6.1-.7.1-1.4 0-2.1 0-.3-.1-.6-.2-.9v-.2c-.1-.3-.3-.7-.4-1l-9.1-16.7c-1.6-3-5.5-4.2-8.6-2.5z"/><path class="st26" d="M503.9 246.1h-71.6v-77.5h57.1l14.4 12.5v65h.1z"/><path class="st31" d="M434.8 187.7h58v19.5c0 3-2.4 5.5-5.5 5.5h-52.5v-25z"/><path class="st32" d="M419.1 179.7h67.6v25h-67.6v-25z"/><path class="st27" d="M434.2 186.6c0-.5.3-1 .8-1h4.7c2.5.1 4.5 2.3 4.4 4.8-.1 2.4-2 4.3-4.4 4.4h-2.3v3.1c0 .5-.3 1-.8 1h-1.4c-.5 0-1-.3-1-.8v-11.5zm4.9 5.4c.9.1 1.7-.6 1.7-1.5v-.3c.1-.9-.5-1.7-1.4-1.8h-2v3.6h1.7zm6.6-5.4c0-.5.3-1 .8-1h3.9c4.2 0 6.9 2.4 6.9 6.6s-2.7 6.7-6.9 6.7h-3.7c-.5 0-1-.3-1-.8v-11.5zm4.6 9.5c2.3 0 3.6-1.3 3.6-3.9s-1.4-3.8-3.6-3.8H449v7.7h1.3zm8.9-9.5c0-.5.3-1 .8-1h6.3c.5 0 1 .3 1 .8v1c0 .5-.3 1-.8 1h-4.1v2.8h3c.5 0 1 .3 1 .8v1c0 .5-.3 1-.8 1h-3.2v3.9c0 .5-.3 1-.8 1h-1.4c-.5 0-1-.3-1-.8v-11.5z"/><g id="_Group_3"><path class="st33" d="M473.6 194.7h77.1v48.6h-77.1v-48.6z"/><path class="st28" d="M541.6 232.1c-.2 1.8-1.8 3.1-3.6 3h-52.7c-1.8.1-3.4-1.2-3.6-3 .2-1.8 1.8-3.1 3.6-3H538c1.8-.1 3.4 1.2 3.6 3z"/><path class="st34" d="M496.9 232.1s-1.6 3-3.6 3h-8c-1.8.1-3.4-1.2-3.6-3 .2-1.8 1.8-3.1 3.6-3h8c1.9-.1 3.4 1.2 3.6 3z"/><path class="st35" d="M473.6 194.7h77.1v48.6h-77.1v-48.6z"/><circle class="st36" cx="495.4" cy="231.9" r="3.5"/></g><path class="st27" d="M518.4 218.1l-10.4 5.3c-.8.4-1.8.1-2.2-.7-.1-.2-.2-.5-.2-.8l.1-10.9c0-.9.7-1.6 1.6-1.6.3 0 .5.1.8.2l10.2 5.6c.8.4 1.1 1.4.7 2.2-.1.3-.3.6-.6.7z"/><path class="st37" d="M414.6 246.4h215.3v17.8H414.6v-17.8z"/><path class="st24" d="M604.6 255.6h-22.3m-17.1 0h-13.5"/><path class="st23" d="M462.5 423.5s8.1-.3 21.3-27.2c14.9-30.4 33.6-87.6 33.6-87.6l6.8 2.6s-26 75-30 85.3-10.1 28.8-31.7 26.9z"/></svg>