<?xml version="1.0" encoding="utf-8"?>
<!-- Generator: Adobe Illustrator 19.2.1, SVG Export Plug-In . SVG Version: 6.00 Build 0)  -->
<svg version="1.1" id="Layer_1" xmlns="http://www.w3.org/2000/svg" xmlns:xlink="http://www.w3.org/1999/xlink" x="0px" y="0px"
	 viewBox="0 0 694.8 518.1" style="enable-background:new 0 0 694.8 518.1;" xml:space="preserve">
<style type="text/css">
	.st0{opacity:0.2;fill:#FFEFBE;enable-background:new    ;}
	.st1{fill:#FFEFBE;}
	.st2{fill:#E2EAF0;}
	.st3{fill:#D6C796;}
	.st4{fill:none;stroke:#3D4349;stroke-width:3;stroke-linecap:round;stroke-linejoin:round;}
	.st5{fill:none;stroke:#3D4349;stroke-width:3;stroke-linecap:round;stroke-linejoin:round;stroke-dasharray:15.21,15.21;}
	.st6{fill:none;stroke:#3D4349;stroke-width:3;stroke-linecap:round;stroke-linejoin:round;stroke-dasharray:15;}
	.st7{fill:#E5EBED;}
	.st8{fill:#C0CBCE;}
	.st9{fill:none;stroke:#3C4249;stroke-width:5;stroke-linecap:round;stroke-linejoin:round;}
	.st10{fill:#FFFFFF;}
	.st11{fill:#E4E7E9;}
	.st12{fill:#CECFD2;}
	.st13{fill:#E5E9EB;}
	.st14{fill:#E1E8EE;}
	.st15{fill:#E5EBED;stroke:#3C4249;stroke-width:5;stroke-linecap:round;stroke-linejoin:round;}
	.st16{fill:none;stroke:#FFFFFF;stroke-width:4;stroke-linecap:round;stroke-linejoin:round;}
	.st17{fill:#FFFFFF;stroke:#3D4349;stroke-width:3;stroke-linecap:round;stroke-linejoin:round;}
	.st18{fill:#E2EAF0;stroke:#3D4349;stroke-width:3;stroke-linecap:round;stroke-linejoin:round;}
	.st19{fill:none;stroke:#3D4349;stroke-width:2.26;stroke-linecap:round;stroke-linejoin:round;}
	.st20{fill:#4F97CF;}
	.st21{fill:#AFBDC6;stroke:#3D4349;stroke-width:3;stroke-linecap:round;stroke-linejoin:round;}
	.st22{fill:none;stroke:#3D4349;stroke-width:2.83;stroke-linecap:round;stroke-linejoin:round;}
	.st23{fill:#FFFFFF;stroke:#4E99CD;stroke-width:3;stroke-linecap:round;stroke-linejoin:round;}
	.st24{fill:#AFBDC6;stroke:#3D4349;stroke-width:3.03;stroke-linecap:round;stroke-linejoin:round;}
	.st25{fill:none;stroke:#FFFFFF;stroke-width:2;stroke-linecap:round;stroke-linejoin:round;}
	.st26{fill:none;stroke:#FFFFFF;stroke-width:1.5;stroke-linecap:round;stroke-linejoin:round;}
	.st27{fill:none;stroke:#E2EAF0;stroke-width:3;stroke-linecap:round;stroke-linejoin:round;}
	.st28{fill:#FFFFFF;stroke:#E2EAF0;stroke-width:3;stroke-linecap:round;stroke-linejoin:round;}
	.st29{fill:#FA8765;}
</style>
<title>Artboard 1 copy 5</title>
<g id="Layer_10">
	<path class="st0" d="M110.9,66.8c-0.2,0.2-0.5,0.4-0.8,0.7l0.1-0.1L110.9,66.8z"/>
	<path class="st1" d="M357.5,339.6c-8-15.4-19.5-26.8-33-37.4c-5.4-4.1-10.5-8.4-15.4-13.1c-0.4-0.4-0.8-1-1.3-1.4
		c-0.6-0.8-1.3-1.5-1.8-2.3c-0.9-1.2-1.6-2.5-2.5-3.7c-0.1-0.3-0.3-0.5-0.4-0.8c-0.4-1.4-0.8-2.7-1.3-4.1c-0.1-0.4-0.1-0.8-0.2-1.2
		s0-1.1-0.1-1.7c0.3-1.6,0.4-4.8,0.5-5.5s1.1-3.9,1-4.1c0.4-1,0.8-2,0.9-2.3c1.5-3.5,3.2-8,5.7-10.8c-0.1,0.1-2.4,3.4-0.7,1.2
		c0.6-0.8,1.1-1.6,1.7-2.4c1.3-1.8,2.7-3.6,4.1-5.4c2.6-3.3,5.3-6.6,7.9-9.8c5.1-6.1,10.1-12.3,14.6-18.9
		c10.4-15.3,18.8-31.7,22.3-50.1c3.2-16.8,2-35.3-4.5-51.2C347.5,96.2,334,83.4,317,73.2c-14.4-8.8-30-15.9-45-23.6l-24.1-12.4
		c-3.7-1.9-7.4-3.9-11.1-5.9c-3-2-6-4-9.1-5.9c-3.3-2-6.7-3.8-10.2-5.3c-1.7-0.7-3.4-1.4-5.2-2c-1.6-0.5-3.2-1-4.8-1.5
		c-0.9-0.4-4.1-1.7-4.9-1.8c-17.4-3.6-36.2,2.6-50.5,12.3c-11.8,8-21.6,19-31.3,29.3c-2.2,2.3-4.3,4.6-6.5,6.8
		c-1.1,1.1-2.2,2.2-3.3,3.3l-0.2,0.2c0.5-0.4,0.6-0.4-0.6,0.6h-0.1l-0.4,0.4l0.3-0.3c-4.9,4.1-9.9,8.1-15.1,12
		c-11.5,8.6-23,17-33.5,26.9c-11.4,10.8-19.8,24.5-24.1,39.6c-9.9,34,7.9,67.1,16.9,99c0.5,1.8,1,3.7,1.5,5.5c-1-3.8,0-0.1,0.3,1.6
		c0.7,4,1.2,8,1.6,12c0.3,3.7,0.5,7.5,0.5,11.2c0,0.6-0.1,3.2-0.1,4v0.4c-0.1,1.2-0.2,2.5-0.3,3.7c-0.9,8.1-2.5,16-4.7,23.8
		l-0.2,0.8c-0.1,0.2-0.2,0.5-0.4,1c-0.7,1.8-1.3,3.5-2,5.2c-1.5,3.7-3.2,7.4-5.1,11c-7.9,15.5-17,32.4-14.1,50.5
		c2.9,18.6,15.7,33.9,30,45.5c25.4,20.6,59.3,28,89.3,12.9c11.8-6,22.3-13.4,32.7-21.5c4.6-3.6,9.3-7.2,14.1-10.6
		c2.3-1.6,4.5-3.2,6.9-4.6c1.1-0.7,2.3-1.4,3.5-2.1l0.4-0.2c2.4-1.1,4.7-2.2,7.2-3c1.2-0.4,2.4-0.8,3.7-1.2h0.1
		c1.1-0.1,8.6-1.5,9.1-0.6c0.2,0.3-4.3-0.6-1.5,0c0.8,0.2,1.8,0.2,2.6,0.4c2,0.3,4,0.8,6,1.3l0.9,0.2l0.4,0.2c1.6,0.7,3.3,1.3,5,2
		c3.6,1.5,7.1,3.2,10.6,5c6.8,3.4,13.4,6.9,20.4,9.9c10.3,4.4,21.4,6.9,32.6,7.4c4.3-0.9,8.8-1.2,13.2-1.1c3.7-1.4,7.3-2.9,10.8-4.6
		c9-4.8,17.7-10.2,26-16.1c0.5-0.7,0.9-1.3,1.4-2C366.5,376.6,366.2,356.3,357.5,339.6L357.5,339.6z"/>
	<path class="st0" d="M269,310.2c0.1,0.2,0.4,0.6,0.6,0.9l-0.1-0.1L269,310.2z"/>
	<path class="st1" d="M575.8,107.4c-16.4,5.6-29.4,15.3-41.9,27c-4.8,4.7-9.9,9.1-15.2,13.3c-0.4,0.3-1.1,0.7-1.6,1.1
		c-0.8,0.5-1.7,1-2.5,1.5c-1.3,0.7-2.7,1.2-4,1.9c-0.3,0.1-0.5,0.2-0.8,0.3c-1.4,0.1-2.8,0.4-4.2,0.6h-1.3c-0.4,0-1.1-0.1-1.7-0.2
		c-1.5-0.5-4.7-1.1-5.3-1.4s-3.6-1.6-3.9-1.7l-2.2-1.3c-3.2-2-7.4-4.3-9.8-7.2c0.1,0.2,3,2.9,1.1,0.9c-0.7-0.7-1.4-1.3-2.1-2
		c-1.6-1.6-3.2-3.2-4.7-4.8c-2.9-3-5.7-6.2-8.5-9.3c-5.3-5.9-10.6-11.8-16.5-17.3C437,96.2,422,85.4,404.4,79.2
		c-16.1-5.7-34.6-7.3-51.3-3.2c-19.5,4.8-34.1,16.2-46.8,31.4c-10.8,13-20.2,27.3-30.1,41l-15.9,22c-2.4,3.4-5,6.7-7.5,10
		c-2.4,2.6-4.9,5.3-7.2,8.1c-2.5,2.9-4.7,6-6.8,9.3c-1,1.6-1.9,3.2-2.7,4.9c-0.8,1.5-1.4,3-2.2,4.5c-0.5,0.8-2.3,3.9-2.5,4.5
		c-6.2,16.6-2.8,36.2,4.6,51.8c6.2,12.9,15.5,24.2,24.3,35.3c2,2.5,3.9,5,5.8,7.5c0.9,1.2,1.9,2.5,2.8,3.8l0.1,0.2
		c-0.3-0.5-0.3-0.6,0.5,0.7v0.1l0.3,0.5l-0.2-0.3c3.3,5.5,6.5,11,9.6,16.7c6.8,12.7,13.3,25.3,21.6,37.1c9,12.9,21.2,23.2,35.5,29.8
		c32.1,14.9,67.5,2.3,100.4-1.8c1.9-0.2,3.8-0.4,5.6-0.6c-3.9,0.5-0.1,0,1.6-0.1c4-0.1,8.1,0,12.1,0.3c3.7,0.2,7.4,0.7,11.1,1.2
		c0.6,0.1,3.2,0.6,4,0.7l0.4,0.1c1.2,0.3,2.4,0.6,3.6,0.9c7.8,2.1,15.5,4.8,22.8,8.2l0.8,0.3l0.9,0.5c1.6,0.9,3.3,1.8,4.9,2.8
		c3.5,2.1,6.8,4.3,10.1,6.7c14.2,10.2,29.5,21.7,47.8,21.6c18.8-0.1,35.8-10.4,49.4-22.8c24.2-22,36.6-54.5,26.2-86.4
		c-4.1-12.6-9.9-24-16.4-35.5c-2.9-5.1-5.8-10.3-8.4-15.5c-1.2-2.5-2.4-5-3.5-7.5c-0.5-1.3-1-2.5-1.6-3.8l-0.2-0.4
		c-0.7-2.5-1.4-5-1.9-7.6c-0.2-1.3-0.4-2.5-0.6-3.8V252c0-1.1-0.2-8.8,0.8-9.1c0.3-0.1-1.2,4.2-0.2,1.5c0.3-0.8,0.5-1.7,0.7-2.5
		c0.6-1.9,1.4-3.9,2.2-5.7c0.1-0.3,0.2-0.5,0.3-0.8l0.2-0.4c1-1.5,1.8-3.1,2.7-4.6c2-3.3,4.3-6.6,6.5-9.8
		c4.3-6.2,8.8-12.2,12.8-18.6c5.9-9.5,10-20.1,12.2-31.1c-0.2-4.4,0.1-8.9,0.9-13.2c-0.8-3.8-1.8-7.6-2.9-11.4
		c-3.4-9.6-7.4-19-12-28.1c-0.6-0.6-1.2-1.1-1.8-1.7C613.7,104,593.6,101.3,575.8,107.4L575.8,107.4z"/>
	<path class="st2" d="M624.8,162.1h28.4c3.7,0,6.7-3,6.7-6.7v-7.4c0-3.6-4-5.8-7-7.1c-0.7-0.3-1.3-0.6-2-0.9c-5.1-2.1-6-3.6-6-6.6
		c0-0.4,0.1-0.9,0.5-1.1c1-1.3,1.7-2.9,1.8-4.5c1.1-0.6,1.8-1.6,2-4.4c0-0.9-0.2-1.8-0.7-2.5c0.1-0.9,0.3-2.4,0.4-3.7
		c0-5.5-4.5-10-10-10s-10,4.5-10,10c0.1,1.3,0.3,2.8,0.5,3.7c-0.5,0.8-0.7,1.7-0.7,2.6c0.2,2.7,0.9,3.7,2,4.3
		c0.2,1.7,0.8,3.2,1.8,4.5c0.3,0.3,0.5,0.7,0.5,1.1c0,3-0.9,4.5-6,6.6c-0.6,0.3-1.3,0.5-2,0.9c-3,1.3-7,3.5-7,7.1v7.4
		C618.1,159.1,621.1,162.1,624.8,162.1C624.8,162.1,624.8,162.1,624.8,162.1L624.8,162.1z"/>
	<path class="st3" d="M642,146.3c-3.4-9.6-7.4-19-12-28.1l-0.6-0.6c0.1,1.2,0.3,2.4,0.4,3.2c-0.5,0.8-0.7,1.7-0.7,2.6
		c0.2,2.7,0.9,3.7,2,4.3c0.2,1.7,0.8,3.2,1.8,4.5c0.3,0.3,0.5,0.7,0.5,1.1c0,3-0.9,4.5-6,6.6c-0.6,0.3-1.3,0.5-2,0.9
		c-3,1.3-7,3.5-7,7.1v7.4c0,3.7,3,6.7,6.7,6.7h19.2c0.2-1.5,0.4-2.9,0.7-4.4C644.2,153.9,643.2,150.1,642,146.3L642,146.3z"/>
	<path class="st2" d="M79.6,224.9H26c-0.8,0-1.5,0.7-1.5,1.5l0,0v56c0,0.8,0.7,1.5,1.5,1.5h53.7c0.8,0,1.5-0.7,1.5-1.5v-56
		C81.2,225.5,80.5,224.9,79.6,224.9C79.6,224.9,79.6,224.9,79.6,224.9z"/>
	<path class="st3" d="M58.3,279.8c-0.1,1.2-0.2,2.5-0.3,3.7v0.3h22c0.8,0,1.5-0.7,1.5-1.5v-56c0-0.8-0.7-1.5-1.5-1.5H48.2
		c2.3,6.8,4.6,13.4,6.4,20.1c0.5,1.8,1,3.7,1.5,5.5c-1-3.8,0-0.1,0.3,1.6c0.7,4,1.2,8,1.6,12c0.3,3.7,0.5,7.5,0.5,11.2
		c0,0.6-0.1,3.2-0.1,4L58.3,279.8z M87.6,219.5c0.4-0.4,0.4-1,0-1.4c-0.4-0.4-1-0.4-1.4,0l-4.1,4.4c-0.4,0.4-0.4,1,0,1.4
		c0.4,0.4,1,0.4,1.4,0L87.6,219.5z M79.6,223.1c0.6,0,1-0.4,1-1v-4.4c0-0.6-0.4-1-1-1s-1,0.4-1,1v4.4
		C78.6,222.6,79.1,223.1,79.6,223.1z M88.4,225.4H84c-0.6,0-1,0.4-1,1s0.4,1,1,1h4.4c0.6,0,1-0.4,1-1S89,225.4,88.4,225.4z"/>
	<path class="st2" d="M22.6,285l-4.2,4.5c-0.4,0.4-0.4,1,0,1.4c0.4,0.4,1,0.4,1.4,0l4.1-4.4c0.4-0.3,0.5-1,0.2-1.4
		c-0.3-0.4-1-0.5-1.4-0.2C22.7,284.9,22.6,284.9,22.6,285z M26.4,285.9c-0.6,0-1,0.4-1,1v4.5c0,0.6,0.4,1,1,1s1-0.4,1-1v-4.5
		C27.4,286.3,26.9,285.9,26.4,285.9z M23,282.6c0-0.6-0.4-1-1-1h-4.4c-0.6,0-1,0.4-1,1s0.4,1,1,1H22C22.6,283.6,23,283.1,23,282.6z
		 M11.9,68.4l16.3,5.5L35.5,95c0.1,0.1,0.1,0.3,0.2,0.4c0.1,0.1,0.2,0.2,0.3,0.3h0.1c0.1,0.1,0.2,0.1,0.3,0.2c0.1,0,0.3,0.1,0.4,0.1
		c0.2,0,0.3,0,0.5-0.1l0.1-0.1c0.1,0,0.2-0.1,0.3-0.2h0.1l15.9-13.3l8.4,2.9c0.1,0,0.3,0.1,0.5,0.1h0.1c0.1,0,0.2,0,0.4-0.1H63
		c0.1,0,0.2-0.1,0.3-0.1c0.1-0.1,0.2-0.2,0.3-0.3l0.1-0.1c0.1-0.1,0.2-0.2,0.2-0.3l14.4-32.8v-0.1c0,0,0-0.1,0-0.2
		c0-0.1,0-0.1,0-0.2v-0.1c0-0.1,0-0.2,0-0.3v0c0-0.1,0-0.2-0.1-0.3v-0.1c0-0.1-0.1-0.1-0.1-0.2v0c0,0,0-0.1-0.1-0.1
		c-0.1-0.1-0.2-0.2-0.3-0.2c-0.1-0.1-0.2-0.1-0.3-0.2h-0.1c-0.1,0-0.3-0.1-0.4-0.1h-0.4l-64.5,16c-0.8,0.2-1.3,1-1.1,1.8
		C11.1,67.9,11.5,68.3,11.9,68.4L11.9,68.4z M10.8,72.5l-7.6,3.9c-0.5,0.3-0.7,0.9-0.4,1.3s0.9,0.7,1.3,0.4l0,0l7.6-3.9
		c0.5-0.3,0.7-0.9,0.4-1.3S11.3,72.2,10.8,72.5L10.8,72.5z"/>
	<path class="st2" d="M19.5,74.9c-0.3-0.5-0.9-0.7-1.3-0.4c0,0,0,0,0,0l-4.5,2.3c-0.5,0.3-0.7,0.9-0.4,1.3s0.9,0.7,1.3,0.4l4.5-2.3
		C19.6,76,19.7,75.4,19.5,74.9C19.5,74.9,19.5,74.9,19.5,74.9z M9.3,79.8l-4.5,2.3c-0.5,0.3-0.7,0.9-0.4,1.3s0.9,0.7,1.3,0.4l0,0
		l4.5-2.3c0.5-0.3,0.7-0.9,0.4-1.3S9.8,79.5,9.3,79.8L9.3,79.8z M52.2,101.8c0.3,0,0.5-0.1,0.7-0.3l5.9-6.2c0.4-0.4,0.4-1,0-1.4
		c-0.4-0.4-1-0.4-1.4,0l0,0l-5.9,6.2c-0.4,0.4-0.4,1,0,1.4C51.7,101.7,51.9,101.8,52.2,101.8L52.2,101.8z M55.5,90.4
		c0.4-0.4,0.4-1,0-1.4c-0.4-0.4-1-0.4-1.4,0.1l-3.5,3.7c-0.3,0.4-0.3,1.1,0.2,1.4c0.4,0.3,1,0.3,1.3-0.1L55.5,90.4z M220.4,72.4
		c0.1,0,0.2,0,0.3,0c0.5,0,0.9-0.3,1-0.7l2-7.2c0.1-0.5-0.2-1.1-0.7-1.2s-1.1,0.2-1.2,0.7l0,0l-2,7.2
		C219.5,71.7,219.8,72.3,220.4,72.4C220.3,72.4,220.4,72.4,220.4,72.4z"/>
	<path class="st3" d="M223.7,74.4c-1.5,0-3,0.2-4.5,0.6c-6.9-8.7-19.5-10.2-28.2-3.4c-8.7,6.9-10.2,19.5-3.4,28.2
		c3.8,4.8,9.6,7.7,15.8,7.7h20.3c9.2,0,16.6-7.4,16.6-16.6S232.8,74.4,223.7,74.4z"/>
	<path class="st2" d="M225.5,72c0.2,0,0.5-0.1,0.6-0.2l2.8-2.3c0.4-0.4,0.3-1.1-0.1-1.4c-0.3-0.3-0.8-0.3-1.1-0.1l-2.8,2.3
		c-0.4,0.3-0.5,1-0.2,1.4C224.9,71.9,225.2,72.1,225.5,72L225.5,72z M215.9,68c0.1,0.5,0.7,0.9,1.2,0.7s0.9-0.7,0.7-1.2l-0.8-3.1
		c-0.1-0.5-0.7-0.9-1.2-0.7s-0.9,0.7-0.7,1.2l0,0L215.9,68z M363.4,11.5c-12.7,0-23,10.3-23,23s10.3,23,23,23s23-10.3,23-23
		S376.1,11.5,363.4,11.5z M542.2,80.4V47.9c0-0.8-0.7-1.5-1.5-1.5h-53.3c-0.8,0-1.5,0.7-1.5,1.5v32.5l-4.7,7.3
		c-0.2,0.3-0.3,0.6-0.3,0.9v4.8c0,0.8,0.7,1.5,1.5,1.5l0,0h63.3c0.8,0,1.5-0.7,1.5-1.5c0,0,0,0,0,0v-4.7c0-0.3-0.1-0.7-0.3-0.9
		L542.2,80.4z M545.4,44.3c0.3,0,0.5-0.1,0.7-0.3l4.2-4.5c0.4-0.4,0.4-1,0-1.4c-0.4-0.4-1-0.4-1.4,0l-4.2,4.5c-0.4,0.4-0.4,1,0,1.4
		C544.9,44.2,545.2,44.3,545.4,44.3L545.4,44.3z M542.4,43.1c0.6,0,1-0.4,1-1v-4.5c0-0.6-0.4-1-1-1s-1,0.4-1,1v4.5
		C541.4,42.7,541.8,43.1,542.4,43.1z M551.1,45.4h-4.5c-0.6,0-1,0.4-1,1s0.4,1,1,1h4.5c0.6,0,1-0.4,1-1S551.7,45.4,551.1,45.4z
		 M672.2,214.5c-3.1-0.8-6.3,1-7.4,4c-0.1,0.1-0.1,0.3-0.1,0.4c-0.4,2.1,0.4,4.3,1.9,5.8l-10.2,18.9l-13.7-1.6
		c-0.4-3.3-3.4-5.6-6.7-5.2c-3.3,0.4-5.6,3.4-5.2,6.7c0.2,1.8,1.3,3.4,2.8,4.4l-3.5,11.1l-14.7-1.3c-0.5-3.3-3.6-5.5-6.9-5
		c-3.3,0.5-5.5,3.6-5,6.9c0.1,0.7,0.4,1.4,0.7,2.1l0.1,0.1l-8.4,8.7c-3-1.9-6.9-1-8.8,2c-1.9,3-1,6.9,2,8.8c0.6,0.4,1.2,0.6,1.8,0.8
		c0.5,0.1,1,0.2,1.5,0.2c2.5-0.2,4.8-1.5,6.2-3.7c0.1-0.2,0.2-0.4,0.2-0.5l20.2,2.5c0.4,3.3,3.4,5.6,6.7,5.2
		c3.3-0.4,5.6-3.4,5.2-6.7c0-0.4-0.1-0.8-0.3-1.1c-0.4-1.3-1.3-2.5-2.5-3.2l3.9-12.4l10,0.9c0.5,3.3,3.6,5.5,6.9,5
		c3.3-0.5,5.5-3.6,5-6.9c-0.2-1.3-0.9-2.5-1.8-3.5l5.8-10.9l1.3,0.2c0.4,3,3,5.2,6,5.2c3.3,0,6-2.7,6-6c0-0.6-0.1-1.2-0.3-1.8
		c-1-3.2-4.4-4.9-7.6-3.9c-1.5,0.5-2.8,1.6-3.5,3c-0.1,0.2-0.2,0.4-0.2,0.5h-0.1l9.6-17.9c0.5,0.1,0.9,0.2,1.4,0.2
		c2.7,0,5-1.7,5.9-4.2c0.1-0.1,0.1-0.3,0.1-0.4C677.2,218.5,675.3,215.4,672.2,214.5L672.2,214.5z M625.5,273.8
		c-2.6-0.1-4.9,1.4-5.9,3.8l-20.2-2.5c-0.1-1-0.5-1.9-1-2.6l8.3-8.5c0.9,0.5,1.9,0.8,3,0.8c2.5,0,4.8-1.6,5.6-4l14,1.3L625.5,273.8z
		 M649.5,256.4c-3-0.7-6,0.9-7,3.8l-9.3-0.9l3.3-10.6h0.3c2.5,0,4.7-1.5,5.6-3.8l12.5,1.5L649.5,256.4z"/>
	<path class="st3" d="M614.8,276.9l-14.9-1.8c0-0.4-0.1-0.7-0.2-1.1c-0.2-0.6-0.5-1.1-0.8-1.6l8.3-8.5c0.6,0.3,1.3,0.6,2,0.7
		l-0.2-0.6l-0.2-0.4c-0.7-2.5-1.4-5-1.9-7.6c-0.1-0.7-0.2-1.4-0.3-2c-2.4,1.8-3.1,5.1-1.5,7.7l0.1,0.1l-8.4,8.7
		c-3-1.8-6.9-0.9-8.8,2.1c-1.8,3-0.9,6.9,2.1,8.8c0.5,0.3,1.1,0.6,1.6,0.7c0.5,0.1,1,0.2,1.5,0.2c2.5-0.2,4.8-1.5,6.2-3.7
		c0.1-0.2,0.2-0.4,0.2-0.5l17,2.1C615.9,279.1,615.3,278,614.8,276.9L614.8,276.9z"/>
	<path class="st4" d="M512,57.3l-4.6,5.9"/>
	<path class="st5" d="M498,75.3l-145,185.8"/>
	<path class="st4" d="M348.4,267.1l-4.6,5.9"/>
	<path class="st6" d="M345.8,272.5L357,17.3 M361.9,271.3L193.4,68 M354.4,281l278.9-142 M337.4,283L37.4,65 M350.2,264.8L46.4,242
		 M331.2,264.8l251.5,0.1"/>
	<g id="_Group_">
		<path class="st7" d="M371.9,379.8l20,108h-100l20-108H371.9z"/>
		<path class="st8" d="M371.9,379.8l7.9,42.9l-75.9-0.9l7.9-42L371.9,379.8L371.9,379.8z"/>
		<path class="st9" d="M391.9,487.8h-100l20-108h60L391.9,487.8z"/>
	</g>
	<path class="st10" d="M150.3,95.4c-5.4,3.1-12.3,1.4-15.4-4c-3.1-5.4-1.4-12.3,4-15.4c5.4-3.1,12.3-1.4,15.4,4
		C157.5,85.3,155.7,92.2,150.3,95.4z M142,81.2c-2.5,1.5-3.3,4.7-1.9,7.2c1.5,2.5,4.7,3.3,7.2,1.9c2.5-1.5,3.3-4.7,1.9-7.2
		c0,0,0,0,0,0C147.7,80.5,144.5,79.7,142,81.2z M605.4,382c-5.4,3.1-12.3,1.4-15.4-4c-3.1-5.4-1.4-12.3,4-15.4
		c5.4-3.1,12.3-1.4,15.4,4C612.6,372,610.8,378.8,605.4,382z M597.1,367.8c-2.5,1.5-3.3,4.7-1.9,7.2c1.5,2.5,4.7,3.3,7.2,1.9
		s3.3-4.7,1.9-7.2c0,0,0,0,0,0C602.8,367.2,599.6,366.3,597.1,367.8L597.1,367.8z M93.3,352.8c-5.4,3.1-12.3,1.4-15.4-4
		c-3.1-5.4-1.4-12.3,4-15.4c5.4-3.1,12.3-1.4,15.4,4C100.4,342.8,98.7,349.7,93.3,352.8z M85,338.6c-2.5,1.5-3.3,4.7-1.9,7.2
		c1.5,2.5,4.7,3.3,7.2,1.9c2.5-1.5,3.3-4.7,1.9-7.2c0,0,0,0,0,0C90.7,338,87.5,337.2,85,338.6z M94.5,165.8c-1.2-0.5-2-1.7-1.8-3
		l2.5-23.5c0.2-1.6,1.6-2.7,3.2-2.5c1.6,0.2,2.7,1.6,2.5,3.1l0,0l-2.5,23.5c-0.2,1.6-1.6,2.7-3.1,2.5C95,166,94.7,165.9,94.5,165.8
		L94.5,165.8z M589.9,212.3c-1.2-0.5-2-1.7-1.8-3l2.5-23.5c0.2-1.6,1.6-2.7,3.2-2.5c1.6,0.2,2.7,1.6,2.5,3.1l0,0l-2.5,23.5
		c-0.2,1.6-1.6,2.7-3.1,2.5C590.4,212.4,590.2,212.4,589.9,212.3L589.9,212.3z"/>
	<g id="_Group_2">
		<path class="st11" d="M159.4,138h368.8c11.3,0,20.5,9.2,20.5,20.5v217.4c0,11.3-9.2,20.5-20.5,20.5H159.4
			c-11.3,0-20.5-9.2-20.5-20.5V158.5C138.9,147.2,148,138,159.4,138z"/>
		<path class="st12" d="M548.7,352v23.9c0,11.3-9.2,20.5-20.5,20.5H159.4c-11.3,0-20.5-9.2-20.5-20.5V352H548.7z"/>
		<g id="_Group_3">
			<path class="st13" d="M548.7,158.5v217.4c0,11.3-9.2,20.5-20.5,20.5H159.4c-11.3,0-20.5-9.2-20.5-20.5V158.5
				c0-11.3,9.2-20.5,20.5-20.5h368.9C539.5,138,548.7,147.2,548.7,158.5z"/>
			<path class="st9" d="M138.9,201.2v-42.7c0-11.3,9.2-20.5,20.5-20.5h368.9c11.3,0,20.5,9.2,20.5,20.5v217.4
				c0,11.3-9.2,20.5-20.5,20.5H159.4c-11.3,0-20.5-9.2-20.5-20.5v-82.5"/>
		</g>
		<path class="st9" d="M138.9,267.2v-43.1"/>
	</g>
	<path class="st10" d="M165.3,161.2h357c3.9,0,7,3.1,7,7v198c0,3.9-3.1,7-7,7h-357c-3.9,0-7-3.1-7-7v-198
		C158.3,164.4,161.4,161.2,165.3,161.2z"/>
	<path class="st14" d="M688.3,488.8c-1.7-0.8-4.8-2.5-7.8-2.9c-2.5-0.3-4.9-0.3-7.4-0.4c-3.1-0.1-6.6-0.3-10-0.6
		c-8.5-0.8-16.7-2.6-25.1-3.8c-9-1.2-18.1-1.8-27.2-1.7c-1.8-3.7-4.9-6.6-8.7-8.2c-5.1-4.4-11-4.4-17.9-2.9
		c-0.9,0.2-1.8,0.4-2.7,0.6c-9,1.1-18,3.5-26.8,5.1c-10.5,1.8-21,3.2-31.5,4.5c-10.1,1.2-21.2,0.7-31.2,3.2
		c-25.7-3.4-51.7-4-77.7-4.6c-33.5-0.8-67.3,0.7-100.7,2.7s-66.9,5.3-100.3,8.2c-16.4,1.4-32.9,2.5-49.3,1.7
		c-16.2-0.8-32.1-4.4-48.2-5.7c-18.3-1.5-36,1.3-53.9,4.6c-8.4,1.5-16.8,3-25.3,3.7c-8.9,0.8-17.9,0.5-26.9,1.1
		c-10.4,0.8-13.6,16.2-3.7,20.4c15.2,6.5,32.2,4.4,48.1,2.2c15.7-2.2,31.4-5.2,47.3-5.2c15.3,0,30.5,3.8,45.7,5.5
		c17.2,1.9,34.6,1.9,51.9,1.1c33.8-1.6,67.6-5.3,101.4-7c33.5-1.7,67.1-2.8,100.7-3.4c24.7-0.4,49.5-0.6,74.2-2.4
		c0.5,0.4,1,0.7,1.5,1c5.3,3.5,11.2,6,17.4,7.6c12.4,3.3,25.5,2.6,37.9-0.2c9.4-2.3,18.7-5.2,27.6-8.9c8.8-1.7,17.7-2.7,26.7-3.2
		c8.2-0.4,16.4,0,24.5,1.3c8.7,1.5,17.2,4.1,25.8,6.1s17,4.3,25.8,5.1c5,0.6,10,0.6,14.9,0c2.4-0.2,4.9-0.8,7.2-1.6
		c3.3-1.3,5-3.7,7.5-6C697.5,500.8,694.2,491.7,688.3,488.8L688.3,488.8z"/>
	<path class="st9" d="M53.5,495.4h171 M633.5,495.4h41 M254.5,495.4h31 M309.5,495.4h259"/>
	<path class="st15" d="M272.2,481.8h142.1V495H272.2V481.8z"/>
	<g id="_Group_4">
		<path class="st10" d="M649.9,136.5v7.4c0,2.9-2.3,5.2-5.2,5.2h-28.4c-2.9,0-5.2-2.3-5.2-5.2c0,0,0,0,0,0v-7.4c0-2,1.8-3.9,6.1-5.8
			c0.7-0.4,1.4-0.6,1.9-0.9c5.2-2.2,6.9-4,6.9-8c0-2.4-1.6-1.6-2.3-5.9c-0.3-1.8-1.7,0-2-4.2c0-1.6,0.8-2,0.8-2s-0.4-2.4-0.5-4.3
			c-0.2-2.3,1.2-8.3,8.5-8.3h0.1c7.3,0,8.6,6,8.5,8.3c-0.2,1.9-0.5,4.3-0.5,4.3s0.8,0.4,0.8,2c-0.3,4.1-1.7,2.3-2,4.2
			c-0.7,4.3-2.3,3.6-2.3,5.9c0,4,1.7,5.8,6.9,8c0.5,0.2,1.2,0.5,1.9,0.9C648.1,132.7,649.9,134.6,649.9,136.5L649.9,136.5z"/>
		<path class="st2" d="M631.1,139.8c6.4-0.2,12.7-1.2,18.8-3.2v7.4c0,2.9-2.3,5.2-5.2,5.2h-28.5c-2.9,0-5.2-2.3-5.2-5.2c0,0,0,0,0,0
			v-7.4C617.6,138.5,624.3,139.6,631.1,139.8z"/>
		<path class="st4" d="M644.7,149.1c2.9,0,5.2-2.3,5.2-5.2v-7.4c0-2-1.8-3.9-6.1-5.8c-0.7-0.4-1.4-0.6-1.9-0.9c-5.3-2.2-6.9-4-6.9-8
			c0-2.4,1.6-1.6,2.3-5.9c0.3-1.8,1.7,0,2-4.2c0-1.6-0.8-2-0.8-2s0.4-2.4,0.5-4.3c0.2-2.3-1.2-8.3-8.5-8.3h-0.1
			c-7.3,0-8.6,6-8.5,8.3c0.2,1.9,0.5,4.3,0.5,4.3s-0.8,0.4-0.8,2c0.3,4.1,1.7,2.3,2,4.2c0.7,4.3,2.3,3.6,2.3,5.9c0,4-1.7,5.8-6.9,8
			c-0.5,0.2-1.2,0.5-1.9,0.9c-4.3,1.9-6.1,3.8-6.1,5.8v7.4c0,2.9,2.3,5.2,5.2,5.2c0,0,0,0,0,0H644.7z"/>
	</g>
	<path class="st16" d="M366.1,451.8l2.1,13 M363.2,433.5l1.6,9.8"/>
	<path class="st17" d="M17.3,214.8H71v56H17.3L17.3,214.8z"/>
	<path class="st18" d="M17.3,214.8H71v27.9H17.3L17.3,214.8z"/>
	<path class="st19" d="M28.1,226.6h32.1 M33.3,232h21.8"/>
	<path class="st14" d="M29.8,250.8h28.7c0.9,0,1.7,0.8,1.7,1.7v8.6c0,0.9-0.8,1.7-1.7,1.7H29.8c-0.9,0-1.7-0.8-1.7-1.7v-8.6
		C28.1,251.5,28.9,250.8,29.8,250.8z"/>
	<path class="st20" d="M39.8,255.1h8.7v3.3h-8.7L39.8,255.1z"/>
	<path class="st18" d="M3.8,55.5l64.5-16L53.9,72.3l-18.8-6.5l-6.9,17.2l-7.5-21.8C20.8,61.2,3.8,55.4,3.8,55.5z"/>
	<path class="st17" d="M68.3,39.5L20.8,61.2l-17-5.8L68.3,39.5L35.2,65.8l18.8,6.5L68.3,39.5z"/>
	<path class="st21" d="M28.3,82.9l16.4-13.9l-9.6-3.3C35.2,65.8,28.3,82.9,28.3,82.9z"/>
	<g id="_Group_5">
		<path class="st10" d="M215.1,64.3c8.4,0.2,15,7.2,14.8,15.5c-0.2,8.1-6.7,14.6-14.8,14.8h-20.3c-10.3,0-18.7-8.3-18.7-18.7
			s8.3-18.7,18.7-18.7c6.1,0,11.8,2.9,15.3,7.9C211.7,64.6,213.4,64.3,215.1,64.3z"/>
		<path class="st2" d="M230.2,79.4c0,8.4-6.8,15.2-15.1,15.2c0,0,0,0,0,0h-20.3c-10.3,0-18.7-8.4-18.7-18.7
			c3.3,5.5,8.2,9.8,14.1,12.4c3.4,1.5,8.5,2.1,12.9,2.2c6.7-0.3,11.8-0.7,15.8-2.3C227.2,84.9,230.2,79.4,230.2,79.4L230.2,79.4z"/>
		<path class="st22" d="M215.1,64.3c-1.7,0-3.4,0.3-5,0.9c-5.9-8.4-17.6-10.4-26-4.5c-8.4,5.9-10.4,17.6-4.5,26
			c3.5,5,9.2,7.9,15.3,7.9h20.3c8.4-0.2,15-7.2,14.8-15.5C229.7,71,223.2,64.5,215.1,64.3L215.1,64.3z"/>
	</g>
	<path class="st23" d="M203.2,71.2v12.6 M203.2,83.8l5.7-5.7 M197.5,78.1l5.7,5.7"/>
	<g id="_Group_6">
		<path class="st10" d="M354.8,1.5c11.9,0,21.5,9.6,21.5,21.5c0,11.9-9.6,21.5-21.5,21.5c-11.8,0-21.4-9.6-21.5-21.4
			C333.3,11.1,342.9,1.5,354.8,1.5C354.8,1.5,354.8,1.5,354.8,1.5z"/>
		<path class="st2" d="M354.8,37.3c19.3,0,21.5-14.3,21.5-14.3c0,11.9-9.6,21.5-21.4,21.5c-11.9,0-21.5-9.6-21.5-21.4c0,0,0,0,0,0
			C333.3,23,333.3,37.3,354.8,37.3z"/>
		<path class="st4" d="M376.2,23c0,11.9-9.6,21.4-21.5,21.4c-11.9,0-21.4-9.6-21.4-21.5c0-11.8,9.6-21.4,21.5-21.4
			C366.6,1.5,376.2,11.1,376.2,23C376.2,23,376.2,23,376.2,23z"/>
	</g>
	<path class="st20" d="M350.4,27.6l0.4-0.6c0.2-0.4,0.7-0.5,1-0.3c0,0,0.1,0.1,0.1,0.1c0.8,0.6,1.8,1,2.8,1c1.1,0,2-0.5,2-1.7
		c0-2.4-6.6-2.1-6.6-6.4c0-2.1,1.6-3.8,3.7-4v-1c0-0.5,0.2-0.8,0.8-0.8h0.1c0.5,0,0.8,0.2,0.8,0.7v1.1c1,0.1,2,0.4,2.9,1
		c0.4,0.2,0.5,0.6,0.3,1c0,0,0,0.1-0.1,0.1l-0.3,0.7c-0.3,0.5-0.6,0.5-1.1,0.3c-0.7-0.5-1.5-0.7-2.4-0.7c-1.2,0-2.1,0.7-2.1,1.7
		c0,2.3,6.6,1.9,6.6,6.3c0,2.1-1.7,3.9-3.8,4v1c0,0.5-0.3,0.8-0.8,0.8h-0.1c-0.5,0-0.8-0.3-0.8-0.7v-1.1c-1.2-0.1-2.4-0.6-3.4-1.3
		C350.2,28.5,350.1,28.1,350.4,27.6C350.3,27.7,350.4,27.7,350.4,27.6L350.4,27.6z"/>
	<g id="_Group_7">
		<path class="st10" d="M478.8,36.3h53.3v32.9h-53.3V36.3z"/>
		<path class="st14" d="M478.8,36.3h13.3v32.9h-13.3V36.3z"/>
		<path class="st4" d="M478.8,36.3h53.3v32.9h-53.3V36.3z"/>
	</g>
	<path class="st21" d="M537.1,77h-63.3l5-7.8h53.3L537.1,77z"/>
	<path class="st14" d="M497,42.6h28.7c0.9,0,1.7,0.8,1.7,1.7v17.1c0,0.9-0.8,1.7-1.7,1.7H497c-0.9,0-1.7-0.8-1.7-1.7V44.3
		C495.3,43.3,496.1,42.6,497,42.6z"/>
	<path class="st20" d="M513.7,53.5l-3.8,1.7c-0.4,0.1-0.8,0-0.9-0.4c0-0.1-0.1-0.2-0.1-0.3v-3.4c0-0.4,0.3-0.7,0.7-0.7
		c0.1,0,0.2,0,0.3,0.1l3.8,1.7c0.4,0.2,0.6,0.6,0.4,1C514,53.3,513.8,53.4,513.7,53.5z"/>
	<path class="st24" d="M473.8,77h63.3v4.8h-63.3V77z"/>
	<path class="st25" d="M536.8,31.8l4.2-4.4 M533.8,30.6v-4.4 M538.1,34.9h4.4"/>
	<path class="st26" d="M483.5,42.6h5.7 M483.5,46.5h4.2 M483.5,50.3h5.1 M483.5,54.1h2.8 M483.5,58h4.5 M483.5,61.8h5.7"/>
	<path class="st27" d="M662,208.8l-22.5,41.9l-38.6-3.5l-17,17.6"/>
	<path class="st28" d="M657.5,207.6c2.3-5.6,9.8-3.6,9,2.4C664.2,215.6,656.8,213.6,657.5,207.6z"/>
	
		<ellipse transform="matrix(0.8645 -0.5026 0.5026 0.8645 -43.7065 333.9684)" class="st28" cx="597.6" cy="248.1" rx="4.5" ry="4.5"/>
	
		<ellipse transform="matrix(0.8645 -0.5026 0.5026 0.8645 -54.7677 327.7994)" class="st28" cx="580.6" cy="265.5" rx="4.5" ry="4.5"/>
	
		<ellipse transform="matrix(0.8645 -0.5026 0.5026 0.8645 -40.3281 353.7822)" class="st28" cx="636" cy="251.7" rx="4.5" ry="4.5"/>
	<path class="st4" d="M584.8,264.3l31.8,3.9l11.6-37l28.5,3.5"/>
	
		<ellipse transform="matrix(0.9513 -0.3082 0.3082 0.9513 -52.9941 193.0877)" class="st17" cx="584.8" cy="264.3" rx="4.5" ry="4.5"/>
	
		<ellipse transform="matrix(0.9513 -0.3082 0.3082 0.9513 -40.6914 204.8524)" class="st17" cx="628.2" cy="231.2" rx="4.5" ry="4.5"/>
	
		<ellipse transform="matrix(0.9513 -0.3082 0.3082 0.9513 -40.3789 213.798)" class="st17" cx="656.7" cy="234.7" rx="4.5" ry="4.5"/>
	
		<ellipse transform="matrix(0.9513 -0.3082 0.3082 0.9513 -52.6552 203.0632)" class="st17" cx="616.5" cy="268.2" rx="4.5" ry="4.5"/>
	<g>
		<path class="st29" d="M376.3,249.2c-1.6-6.2-6.5-11.1-12.8-12.8c-12.1-3.1-24.8-3.1-36.9-0.1c-6.4,1.7-11.4,6.7-13.1,13.1
			c-3.1,12.1-3,24.8,0.1,36.9c1.6,6.2,6.5,11.1,12.8,12.8c12.2,3.1,24.9,3.1,37.1,0c6.2-1.6,11.1-6.5,12.8-12.8
			C379.4,274.1,379.4,261.4,376.3,249.2L376.3,249.2z"/>
		<g>
			<path class="st10" d="M345.1,244.8c-10.2,0-18.6,8.3-18.6,18.6c0,10.2,8.3,18.6,18.6,18.6s18.6-8.3,18.6-18.6
				C363.7,253.1,355.4,244.8,345.1,244.8z M345.1,276.2c-7.1,0-12.9-5.8-12.9-12.9s5.8-12.9,12.9-12.9s12.9,5.8,12.9,12.9
				S352.2,276.2,345.1,276.2z"/>
			<circle class="st10" cx="345.1" cy="263.3" r="6.4"/>
		</g>
		<g>
			<path class="st10" d="M327.8,291.2c0.6,0.1,1-0.1,1-1v-3.5h4.1v5.7h-1.3V288h-1.4v2.1c0,2-1.2,2.4-2.3,2.3V291.2z"/>
			<path class="st10" d="M334.3,289.6c0-1.7,1.4-3,3.1-3c1.7,0,3.1,1.3,3.1,3c0,1.7-1.4,3-3.1,3
				C335.6,292.6,334.3,291.3,334.3,289.6z M339,289.6c0-1-0.8-1.7-1.7-1.7c-1,0-1.7,0.7-1.7,1.7s0.8,1.7,1.7,1.7
				C338.3,291.3,339,290.6,339,289.6z"/>
			<path class="st10" d="M345.1,288h-2v4.5h-1.3v-5.7h3.4V288z"/>
			<path class="st10" d="M345.8,289.6c0-1.7,1.4-3,3.1-3c1.7,0,3.1,1.3,3.1,3c0,1.7-1.4,3-3.1,3
				C347.2,292.6,345.8,291.3,345.8,289.6z M350.6,289.6c0-1-0.8-1.7-1.7-1.7s-1.7,0.7-1.7,1.7s0.8,1.7,1.7,1.7
				S350.6,290.6,350.6,289.6z"/>
			<path class="st10" d="M354.4,289.6c0-1.7,1.4-3,3.1-3c1.7,0,3.1,1.3,3.1,3c0,1.7-1.4,3-3.1,3
				C355.7,292.6,354.4,291.3,354.4,289.6z M359.1,289.6c0-1-0.8-1.7-1.7-1.7c-1,0-1.7,0.7-1.7,1.7s0.8,1.7,1.7,1.7
				C358.4,291.3,359.1,290.6,359.1,289.6z"/>
			<path class="st10" d="M361.1,291.8c0-0.4,0.4-0.8,0.8-0.8c0.4,0,0.8,0.4,0.8,0.8c0,0.4-0.4,0.8-0.8,0.8
				C361.5,292.6,361.1,292.2,361.1,291.8z M361.1,288.4v-1.6h1.5v1.6l-0.3,2h-1L361.1,288.4z"/>
		</g>
	</g>
</g>
</svg>
