<svg width="416" height="264" viewBox="0 0 416 264" xmlns="http://www.w3.org/2000/svg" xmlns:xlink="http://www.w3.org/1999/xlink"><title>Sell products Illustration</title><defs><path id="a" d="M228.52 32.36V.23H.402v32.13H228.52z"/></defs><g fill="none" fill-rule="evenodd"><path d="M254.634 64.607l.434-.777c.353-.61.831-.66 1.474-.343.959.572 2.819 1.467 5.044 1.24 2.098-.215 3.79-1.569 3.57-3.683-.478-4.608-11.402-2.758-12.103-9.513-.317-3.061 1.77-5.858 5.247-6.724l-.2-1.925c-.072-.695.242-1.078.91-1.146l.254-.026c.668-.069 1.018.215 1.08.815l.21 2.02a9.164 9.164 0 0 1 4.872 1.128c.577.292.66.795.433 1.391l-.331.832c-.288.636-.79.75-1.434.434-.846-.424-2.355-1.035-4.168-.85-2.384.243-3.915 1.9-3.732 3.667.458 4.418 11.364 2.379 12.1 9.48.327 3.157-1.628 6.004-5.365 6.832l.194 1.862c.068.664-.21 1.075-.878 1.143l-.254.026c-.668.068-1.05-.212-1.112-.811l-.207-1.989c-2.76.027-4.767-1.043-5.728-1.647-.584-.355-.671-.889-.31-1.436zm-22.068 11.044l.118-.455c.1-.36.348-.45.737-.376.595.16 1.716.363 2.871-.057 1.089-.395 1.795-1.315 1.372-2.363-.923-2.282-6.484.15-7.837-3.195-.612-1.517.096-3.227 1.826-4.142l-.385-.953c-.14-.345-.028-.582.319-.708l.131-.048c.347-.126.575-.03.695.268l.405 1a5.296 5.296 0 0 1 2.763-.09c.35.07.467.315.433.65l-.057.47c-.061.362-.313.489-.701.416-.514-.101-1.408-.206-2.348.135-1.237.45-1.814 1.502-1.46 2.378.884 2.188 6.408-.339 7.83 3.179.632 1.564.001 3.28-1.873 4.212l.373.923c.133.328.043.576-.302.702l-.133.048c-.346.126-.59.035-.71-.262l-.399-.985a6.107 6.107 0 0 1-3.295-.058c-.363-.101-.487-.36-.373-.689m50.614-9.504l.458-.138c.364-.104.565.056.691.42.151.58.526 1.622 1.46 2.368.883.704 2.036.814 2.745-.085 1.548-1.96-3.318-5.338-1.05-8.211 1.028-1.302 2.874-1.601 4.527-.633l.646-.819c.233-.296.496-.326.777-.102l.107.085c.28.224.308.465.107.72l-.679.859a4.894 4.894 0 0 1 1.437 2.262c.11.328-.045.554-.357.7l-.438.196c-.348.139-.584-.005-.71-.369-.164-.481-.51-1.282-1.273-1.89-1.001-.8-2.207-.733-2.8.019-1.484 1.88 3.445 5.177 1.061 8.197-1.06 1.343-2.874 1.71-4.612.63l-.625.793c-.222.282-.483.336-.764.113l-.107-.086c-.28-.223-.32-.475-.12-.73l.668-.845a5.638 5.638 0 0 1-1.57-2.783c-.088-.356.078-.595.421-.671" fill="#E0E7EE"/><path d="M257.314 98.166l-7.894-5.515c.073-3.982 2.918-7.002 6.12-7.002.612 0 1.225.103 1.847.337 2.104.775 4.427 1.374 6.686 1.42 3.568.075 7.007-1.056 9.623-2.234 2.214-1.01 4.583.916 4.537 3.674l-.11 5.61-9.174 3.944-11.635-.234z" fill="#FCD56F"/><path d="M257.836 96.433l10.803.217 7.838-3.368.088-4.48c.016-.966-.447-1.629-.885-1.924-.272-.184-.705-.352-1.231-.112-3.687 1.66-7.195 2.465-10.41 2.397-2.19-.046-4.636-.56-7.27-1.532a3.532 3.532 0 0 0-1.268-.233c-2.126 0-3.933 1.896-4.332 4.38l6.667 4.655zm11.136 3.767h-.033l-11.69-.235a1.711 1.711 0 0 1-.944-.308l-7.93-5.538a1.783 1.783 0 0 1-.756-1.495c.09-4.835 3.625-8.768 7.882-8.768.84 0 1.666.15 2.455.447 2.269.835 4.342 1.28 6.154 1.317 2.72.056 5.72-.647 8.932-2.093 1.503-.684 3.164-.542 4.55.395 1.563 1.054 2.476 2.903 2.442 4.945l-.11 5.636c-.015.7-.43 1.327-1.062 1.598l-9.217 3.96a1.713 1.713 0 0 1-.673.139z" fill="#3B4249"/><g transform="translate(187.29 228)"><mask id="b" fill="#fff"><use xlink:href="#a"/></mask><path d="M10.423 9.313c14.67-1.765 29.362-.21 43.994 1.166 7.229.68 14.472 1.306 21.736 1.423 3.413.055 6.83 0 10.237-.219 3.544-.229 7.214-.67 9.739-1.126 14.797-2.68 29.076-7.472 44.022-9.47 14.96-2.002 30.254-.255 44.96 2.724 8.026 1.626 6.973 3.881 14.89 5.947 1.975.515 3.947 1.039 5.923 1.546.76.195 1.517.404 2.285.563.237.048 1.371.153 1.728.215l.099.003c2.425-3.17 6.296-5.147 10.556-3.896 4.908 1.44 9.4 6.947 7.471 12.294-2.798 7.759-9.45 12.024-17.8 11.874-7.4-.134-14.685-2.81-21.782-4.62-14.948-3.811-20.319-7.315-35.184-7.248-14.999.067-28.512 4.47-43.657 7.915-15.616 3.552-30.941 4.311-46.877 3.036-17.258-1.38-34.533-3.946-51.849-1.863-5.347.644-10.618-4.78-10.51-9.889.125-5.938 4.29-9.686 10.019-10.375" fill="#717E89" mask="url(#b)"/></g><path fill="#FBE3D5" d="M102.65 166.8h21.61v-57.6h-21.61z"/><path d="M124.26 109.2v21.19s-5.194 3.11-10.489 3.11c-5.506 0-11.122-3.11-11.122-3.11V109.2h21.61z" fill="#D5B6A5"/><path d="M104.49 164.853h17.029v-53.706H104.49v53.706zm18.85 3.747h-20.67c-1.006 0-1.822-.839-1.822-1.873v-57.454c0-1.034.816-1.873 1.822-1.873h20.67c1.005 0 1.82.839 1.82 1.873v57.454c0 1.034-.815 1.873-1.82 1.873z" fill="#263037"/><path d="M144.084 250.5H83.39l-6.646-64.436c-1.339-12.984 3.823-25.928 14.035-33.92 6.278-4.913 14.14-7.844 22.646-7.844 12.336 0 23.316 6.164 30.076 15.596 5.29 7.384 7.548 16.555 6.694 25.631l-6.112 64.973z" fill="#87BFE1"/><path d="M84.367 248.417h57.822l5.965-63.449c.837-8.9-1.436-17.617-6.399-24.547-6.7-9.354-17.458-14.938-28.78-14.938-7.902 0-15.394 2.597-21.67 7.51-9.573 7.498-14.717 19.95-13.424 32.497l6.486 62.927zm59.163 2.983H83.038a1.48 1.48 0 0 1-1.466-1.336l-6.624-64.265c-1.398-13.566 4.178-27.04 14.553-35.164 6.796-5.322 14.913-8.135 23.473-8.135 12.265 0 23.917 6.045 31.17 16.172 5.383 7.517 7.85 16.957 6.946 26.578l-6.093 64.8a1.48 1.48 0 0 1-1.467 1.35z" fill="#263037"/><path d="M353.87 105.144v25.887h-72.898L267.86 134.4h-13.19v-28.13c-2.4-.046-4.35-1.794-4.35-3.93 0-2.17 2-3.94 4.447-3.94h19.406c.73 0 1.42.16 2.034.44.458.086.917.228 1.35.451l11.4 5.853h64.912z" fill="#D2B58F"/><path d="M276.05 123.453v-.957c0-2.017-1.993-3.667-4.43-3.667h-1.312c1.242-.843 2.038-2.121 2.038-3.546v-.242c0-2.523-2.494-4.588-5.541-4.588h-9.409c-3.048 0-5.541 2.065-5.541 4.588v.242c0 1.545.937 2.916 2.363 3.748-1.738.496-2.997 1.863-2.997 3.465v1.526c0 1.152.651 2.183 1.663 2.856-.754.54-1.235 1.333-1.235 2.217v1.471c0 1.597 1.564 2.905 3.486 2.93v.004h13.128l.008-.002h.327c.792 0 1.522-.22 2.114-.587l10.601-2.55h72.557V103.8l-16.26.903-7.69 18.474-53.87.276z" fill="#BDA486"/><path d="M281.835 120.9c0 4.473-3.628 8.1-8.103 8.1a8.102 8.102 0 0 1-8.104-8.1c0-4.474 3.628-8.1 8.104-8.1a8.102 8.102 0 0 1 8.103 8.1" fill="#9B836A"/><path d="M256.793 132.3h11.436l12.881-3.294a1.55 1.55 0 0 1 .38-.047h71.145v-22.67H289.45a1.53 1.53 0 0 1-.697-.168l-11.364-5.805a3.376 3.376 0 0 0-.93-.306 1.536 1.536 0 0 1-.352-.11 3.344 3.344 0 0 0-1.393-.3h-19.343c-1.58 0-2.916 1.103-2.916 2.408 0 1.291 1.278 2.366 2.848 2.396a1.51 1.51 0 0 1 1.49 1.5V132.3zm11.629 3h-13.147a1.51 1.51 0 0 1-1.518-1.5v-26.6c-2.493-.645-4.337-2.745-4.337-5.192 0-2.982 2.67-5.408 5.952-5.408h19.343c.865 0 1.7.167 2.489.498.569.12 1.1.307 1.582.554l11.033 5.636h64.334c.839 0 1.518.672 1.518 1.5v25.67c0 .83-.68 1.5-1.518 1.5h-72.469l-12.882 3.294a1.55 1.55 0 0 1-.38.048zm110.206 112.5H329.68a1.925 1.925 0 0 1-1.922-1.927c0-1.065.86-1.927 1.922-1.927h48.948c5.466 0 10.494-2.506 13.794-6.874 3.3-4.367 4.345-9.898 2.866-15.173l-26.878-95.85a1.922 1.922 0 1 1 3.701-1.043l26.878 95.85c1.808 6.447.531 13.206-3.503 18.544-4.033 5.338-10.178 8.4-16.858 8.4" fill="#263037"/><path d="M371.879 118.384c0 44.38-14.985 89.675-18.734 100.315-.4 1.133-.682 2.305-.994 3.464-.487 1.805-2.106 3.137-4.018 3.137-2.293 0-4.168-1.92-4.168-4.27V22.564c0-2.344 1.875-4.264 4.168-4.264.956 0 1.837.333 2.544.89a4.312 4.312 0 0 1 1.474 2.247c.294 1.088.575 2.183.981 3.24 3.737 9.686 18.747 51.28 18.747 93.707" fill="#D6DCE9"/><path d="M371.879 118.385c0 44.379-17.347 97.986-24.278 106.915-.852-37.986 14.54-58.37 14.543-108.836.003-46.966-14.977-98.495-14.543-98.162 10.008 7.68 24.278 57.656 24.278 100.083" fill="#C2C9D7"/><path d="M347.983 19.707c-1.459 0-2.646 1.197-2.646 2.669v198.842c0 1.475 1.187 2.675 2.646 2.675a2.662 2.662 0 0 0 2.551-1.967l.196-.728c.25-.935.507-1.902.85-2.86 4.44-12.433 18.928-56.389 18.928-99.96 0-42.73-15.764-85.214-18.924-93.296-.406-1.042-.692-2.092-.968-3.107l-.082-.301a2.699 2.699 0 0 0-.943-1.413 2.6 2.6 0 0 0-1.608-.554m0 207.393c-3.208 0-5.818-2.638-5.818-5.882V22.376c0-3.24 2.61-5.876 5.818-5.876a5.74 5.74 0 0 1 3.55 1.224 5.891 5.891 0 0 1 2.058 3.095l.084.305c.266.977.516 1.9.86 2.78 3.196 8.176 19.145 51.162 19.145 94.474 0 44.092-14.632 88.492-19.117 101.05-.297.833-.527 1.694-.77 2.605l-.202.748c-.696 2.543-3.002 4.319-5.608 4.319" fill="#263037"/><path d="M359.08 126.3a1.61 1.61 0 0 1-1.587-1.867c1.263-7.936 1.587-17.94.963-29.735a1.61 1.61 0 0 1 1.517-1.696 1.603 1.603 0 0 1 1.688 1.525c.637 12.022.3 22.254-1 30.415a1.608 1.608 0 0 1-1.582 1.358m-.448-44.1c-.777 0-1.445-.634-1.53-1.486-.693-7.082-1.402-11.84-1.41-11.887-.136-.906.435-1.759 1.274-1.906.837-.145 1.63.469 1.766 1.375.007.048.73 4.897 1.434 12.068.089.912-.524 1.73-1.37 1.827-.055.006-.11.009-.164.009" fill="#FEFEFE"/><path d="M158.363 83.375c3.912 3.464 1.21 7.21-2.58 6.651l-4.002-.11c.019.676.025 1.344.025 2.012 0 19.663-8.17 35.272-42.276 35.272-23.69 0-42.898-19.278-42.898-43.053v-14.67L78.752 33.6h73.675v30.06a35.733 35.733 0 0 0 5.936 19.715" fill="#FBE3D5"/><path d="M149.296 89.846s2.877 1.292 2.877 1.962c0 19.73-8.205 35.392-42.459 35.392-23.791 0-43.082-19.343-43.082-43.2 0 0 6.186 25.438 29.978 34.128 28.3 10.337 57.55-6.474 51.04-28.324 1.432.083 2.052.102 1.646.042" fill="#D5B6A5"/><path d="M68.046 66.142V84.16c0 22.946 18.6 41.613 41.464 41.613 36.2 0 40.842-18.063 40.842-33.8 0-.656-.007-1.312-.025-1.974a1.614 1.614 0 0 1 .469-1.185 1.562 1.562 0 0 1 1.181-.473l4.017.11c.064.001.128.007.19.016 1.153.171 2.2-.243 2.552-1.004.36-.78-.11-1.852-1.258-2.868a1.613 1.613 0 0 1-.275-.316 37.367 37.367 0 0 1-6.228-20.687V35.025H79.72L68.046 66.142zM64.83 84.16V65.848a1.6 1.6 0 0 1 .104-.568l12.17-32.436a1.606 1.606 0 0 1 1.503-1.044h73.974a1.61 1.61 0 0 1 1.608 1.613v30.18a34.134 34.134 0 0 0 5.58 18.734c2.146 1.986 2.85 4.4 1.882 6.494-.95 2.052-3.286 3.19-5.834 2.853l-2.253-.062v.362c0 11.656-2.894 20.242-8.85 26.247C137.526 125.474 126.01 129 109.51 129c-24.636 0-44.679-20.115-44.679-44.839z" fill="#263037"/><path d="M117.957 65.1c1.527-2.69 4.383-4.5 7.653-4.5 3.27 0 6.126 1.81 7.654 4.5" fill="#FBE4D6"/><path d="M133.759 67.8c-.452 0-.89-.239-1.133-.666-1.353-2.385-3.868-3.867-6.566-3.867-2.697 0-5.212 1.482-6.565 3.867a1.294 1.294 0 0 1-1.786.486 1.35 1.35 0 0 1-.477-1.823c1.818-3.205 5.201-5.197 8.828-5.197s7.01 1.992 8.829 5.198a1.349 1.349 0 0 1-.477 1.823 1.286 1.286 0 0 1-.653.179" fill="#263037"/><path d="M144.07 65.1c1.617-2.69 4.64-4.5 8.103-4.5" fill="#FBE4D6"/><path d="M144.424 67.8a1.19 1.19 0 0 1-.628-.18c-.6-.369-.806-1.185-.458-1.822 1.747-3.206 4.996-5.198 8.48-5.198.693 0 1.256.597 1.256 1.334 0 .736-.563 1.333-1.256 1.333-2.59 0-5.007 1.482-6.306 3.867a1.244 1.244 0 0 1-1.088.666" fill="#263037"/><path d="M129.662 85.35A7.652 7.652 0 0 1 122.01 93a7.652 7.652 0 0 1-7.654-7.65 7.652 7.652 0 0 1 7.654-7.65 7.652 7.652 0 0 1 7.653 7.65" fill="#F5D0C0"/><path d="M129.662 101.1s1.301 6.568 9.905 7.2" fill="#F9FCFE"/><path d="M139.135 109.2a1.33 1.33 0 0 1-.103-.004c-4.944-.367-7.707-2.587-9.155-4.385-1.586-1.971-1.976-3.888-1.992-3.969-.138-.705.337-1.384 1.06-1.519.72-.134 1.419.325 1.56 1.026.051.246 1.286 5.705 8.73 6.258.734.054 1.285.678 1.229 1.393-.054.682-.639 1.2-1.33 1.2" fill="#263037"/><path d="M154.874 89.4h-6.303" fill="#FEFEFE"/><path d="M154.204 92.1h-5.862c-.868 0-1.571-.805-1.571-1.8 0-.994.703-1.8 1.57-1.8h5.863c.868 0 1.57.806 1.57 1.8 0 .995-.702 1.8-1.57 1.8" fill="#263037"/><path d="M148.156 5.955c-16.995-2.548-15.342 14.942-34.098 11.384-16.714-3.169-29.417 1.674-34.519 6.957C64.116 40.27 67.957 73.818 67.957 73.818s13.496 2.34 19.655-6.458c3.643-5.206 4.56-20.909 20.394-23.068 12.915-1.762 20.258 5.293 30.797 4.026 10.872-1.307 12.487-8.548 12.487-8.548s3.397-31.105-3.134-33.815" fill="#D5B6A5"/><path d="M148.819 2.556c-14.706-3.448-22.633 13.863-38.99 11.819-16.876-2.11-28.457 3.925-33.587 9.213-15.509 15.986-9.27 46.739-9.27 46.739s9.777 1.33 14.147-3.387c4.323-4.668 11.407-23.852 27.327-26.014 12.987-1.763 20.37 5.299 30.967 4.03 10.933-1.307 15.13-8.555 15.13-8.555s11.912-29.71-5.724-33.845" fill="#C3996B"/><path d="M153.866 35.497h.006-.006zM68.124 67.266c2.536.159 8.622.176 11.543-2.93.928-.986 2.11-2.893 3.48-5.101 4.733-7.634 11.887-19.17 24.657-20.878 7.181-.96 12.828.658 17.81 2.087 4.312 1.236 8.385 2.404 13.016 1.86 9.345-1.102 13.269-6.695 13.8-7.52.6-1.533 6.587-17.354 2.107-25.919-1.373-2.625-3.573-4.255-6.726-4.983-6.728-1.554-12.062 1.708-17.708 5.161-5.755 3.521-12.277 7.512-20.908 6.449-15.543-1.914-26.756 3.168-32.068 8.562-7.596 7.714-9.597 19.295-9.937 27.653-.289 7.081.533 13.118.934 15.559zm1.708 3.234c-1.837 0-3.134-.166-3.282-.186a1.594 1.594 0 0 1-1.353-1.256c-.065-.315-1.586-7.832-1.205-17.406.509-12.818 4.26-23.13 10.85-29.82 5.846-5.937 18.045-11.55 34.746-9.493 7.517.925 13.272-2.596 18.838-6.001 5.949-3.639 12.1-7.402 20.11-5.55 4.061.937 7.036 3.164 8.84 6.616 5.364 10.262-1.723 27.941-2.028 28.689a1.56 1.56 0 0 1-.101.205c-.187.318-4.708 7.801-16.24 9.16-5.273.623-9.648-.633-14.28-1.961-4.908-1.407-9.982-2.861-16.496-1.991C96.96 43.013 90.286 53.778 85.869 60.9c-1.52 2.45-2.72 4.386-3.865 5.604-3.187 3.389-8.663 3.995-12.172 3.995z" fill="#263037"/><path d="M120.419 28.2c-.778 0-1.452-.596-1.55-1.41-.106-.88.502-1.684 1.36-1.794.088-.011 8.977-1.183 14.23-4.642a1.539 1.539 0 0 1 2.16.487 1.636 1.636 0 0 1-.473 2.221c-5.856 3.857-15.14 5.076-15.533 5.126a1.59 1.59 0 0 1-.194.012m21.593-9a1.547 1.547 0 0 1-1.376-.826 1.497 1.497 0 0 1 .665-2.028c.066-.035 2.413-1.298 6.379-5.642a1.566 1.566 0 0 1 2.178-.12 1.49 1.49 0 0 1 .121 2.135c-4.384 4.802-6.986 6.175-7.268 6.316a1.564 1.564 0 0 1-.699.165m-12.588 14.4c-.833 0-1.526-.694-1.561-1.58-.036-.91.634-1.679 1.496-1.718.171-.008 11.118-.615 17.394-7.865a1.508 1.508 0 0 1 2.21-.106c.637.615.682 1.658.1 2.33-7.185 8.299-19.07 8.915-19.572 8.938l-.067.001m-49.499 3.6c-.278 0-.56-.071-.815-.22a1.528 1.528 0 0 1-.546-2.127 26.538 26.538 0 0 1 4.277-5.312 1.618 1.618 0 0 1 2.247.025 1.521 1.521 0 0 1-.025 2.191 23.451 23.451 0 0 0-3.773 4.69 1.596 1.596 0 0 1-1.365.753m-4.617 18.9c-.78 0-1.429-.68-1.462-1.549-.012-.308-.257-7.646 2.567-15.434.301-.83 1.153-1.233 1.905-.9.75.332 1.115 1.273.815 2.103-2.582 7.118-2.363 14.028-2.36 14.096.032.893-.596 1.646-1.403 1.683l-.062.001m8.192-4.5a1.59 1.59 0 0 1-.37-.045 1.541 1.541 0 0 1-1.146-1.864 26.136 26.136 0 0 1 2.426-6.282 1.57 1.57 0 0 1 2.114-.623 1.534 1.534 0 0 1 .63 2.091 23.076 23.076 0 0 0-2.14 5.546 1.557 1.557 0 0 1-1.513 1.177" fill="#E4C09D"/><path fill="#77A5B9" d="M135.065 248.7h-42.32l6.412-70.2h29.495z"/><path fill="#FBE4D6" d="M98.147 249.6h28.814v-53.1H98.147z"/><path d="M99.525 248.202h26.06v-49.405h-26.06v49.405zm27.648 3.198H97.935a1.594 1.594 0 0 1-1.589-1.6v-52.6c0-.884.711-1.599 1.59-1.599h29.237c.878 0 1.589.715 1.589 1.599v52.6c0 .883-.711 1.599-1.589 1.599z" fill="#263037"/><path fill="#87BFE1" d="M98.147 175.8v28.8h28.814v-28.8"/><path d="M127.173 207.3H97.935a1.593 1.593 0 0 1-1.589-1.597v-26.506c0-.882.711-1.597 1.59-1.597.877 0 1.588.715 1.588 1.597v24.908h26.06v-24.908c0-.882.711-1.597 1.589-1.597s1.589.715 1.589 1.597v26.506c0 .882-.711 1.597-1.589 1.597" fill="#263037"/><path d="M134.519 165a1.44 1.44 0 0 1-1.243-.721 22.338 22.338 0 0 0-5.733-6.506 1.508 1.508 0 0 1-.294-2.077 1.424 1.424 0 0 1 2.026-.3 25.276 25.276 0 0 1 6.484 7.358 1.504 1.504 0 0 1-.498 2.035 1.413 1.413 0 0 1-.742.211m-12.683-9c-.178 0-.36-.03-.535-.095a23.543 23.543 0 0 0-8.124-1.431c-.84 0-1.523-.667-1.523-1.487 0-.82.682-1.487 1.523-1.487 3.165 0 6.257.546 9.194 1.621a1.477 1.477 0 0 1 .89 1.914c-.229.597-.81.965-1.425.965" fill="#FEFEFE"/><path d="M217.547 236.396c-14.69-1.41-29.32.48-43.896 2.191-7.2.846-14.417 1.638-21.667 1.924-3.406.135-6.819.161-10.226.023-3.544-.144-7.219-.496-9.75-.891-14.84-2.315-29.212-6.74-44.182-8.374-14.986-1.637-30.212.457-44.825 3.762-7.972 1.804-6.867 4.02-14.722 6.258-1.958.557-3.914 1.124-5.875 1.674-.755.212-1.505.437-2.269.613-.234.054-1.364.185-1.72.255l-.097.004c-2.498-3.091-6.41-4.964-10.634-3.622-4.866 1.547-9.217 7.122-7.162 12.39 2.982 7.641 9.727 11.722 18.059 11.377 7.386-.307 14.594-3.136 21.636-5.1 14.833-4.138 20.11-7.744 34.953-8.027 14.977-.286 28.575 3.771 43.78 6.838 15.676 3.163 30.996 3.556 46.877 1.916 17.196-1.777 34.382-4.73 51.72-3.067 5.355.513 10.486-5 10.255-10.072-.27-5.896-4.518-9.522-10.255-10.072" fill="#717E89"/><path d="M202.804 247.8H178.08c-.88 0-1.594-.805-1.594-1.8 0-.994.714-1.8 1.594-1.8h24.725c.88 0 1.594.806 1.594 1.8 0 .995-.713 1.8-1.594 1.8m-36.016 0h-45.44c-.878 0-1.591-.805-1.591-1.8 0-.994.713-1.8 1.592-1.8h45.439c.88 0 1.592.806 1.592 1.8 0 .995-.713 1.8-1.592 1.8m121.556 0H263.62c-.88 0-1.594-.805-1.594-1.8 0-.994.714-1.8 1.594-1.8h24.725c.881 0 1.594.806 1.594 1.8 0 .995-.713 1.8-1.594 1.8m-189.089 0H37.61c-.88 0-1.593-.805-1.593-1.8 0-.994.713-1.8 1.593-1.8h61.646c.88 0 1.592.806 1.592 1.8 0 .995-.712 1.8-1.592 1.8" fill="#263037"/><path d="M287.394 151.449a24.314 24.314 0 0 1 1.645 8.8c0 14.132-12.041 25.476-26.507 24.491-12.506-.85-22.515-11.107-22.999-23.532a24.34 24.34 0 0 1 4.128-14.555c.922-1.368 1.773-2.775 2.483-4.26 4.012-8.427 9.223-21.76 10.235-35.772v-.121h15.801s6.224 27.242 10.713 36.534c.703 1.45 1.522 2.839 2.38 4.201a23.837 23.837 0 0 1 2.115 4.208l.006.006z" fill="#FCD56F"/><path d="M289.039 160.5c0 13.988-12.046 25.215-26.517 24.241-12.51-.842-22.523-10.994-23.007-23.292 13.862 16.678 37.538 15.631 49.524-.949" fill="#E7BC5D"/><path d="M258.01 109.11c-1.268 13.632-6.252 26.45-10.287 34.929-.677 1.414-1.532 2.882-2.616 4.49a22.59 22.59 0 0 0-3.835 13.53c.446 11.48 9.838 21.09 21.38 21.875 6.462.437 12.622-1.72 17.333-6.082 4.649-4.302 7.314-10.385 7.314-16.687 0-2.774-.5-5.493-1.491-8.084a1.925 1.925 0 0 1-.046-.107 22.165 22.165 0 0 0-1.962-3.904c-1.074-1.705-1.838-3.055-2.48-4.38-3.999-8.276-9.2-29.866-10.539-35.58h-12.77zm6.295 78.39c-.63 0-1.261-.021-1.896-.064-13.32-.907-24.159-11.995-24.675-25.244a26.06 26.06 0 0 1 4.428-15.61c.988-1.467 1.76-2.79 2.36-4.044 4.048-8.504 9.08-21.498 10.077-35.124v-.059c0-.97.793-1.755 1.77-1.755h15.821c.827 0 1.544.568 1.726 1.367.063.271 6.239 27.187 10.596 36.205.583 1.203 1.288 2.448 2.288 4.035a25.636 25.636 0 0 1 2.231 4.417c.016.033.031.068.045.102a26.029 26.029 0 0 1 1.764 9.439c0 7.271-3.076 14.289-8.438 19.253-4.974 4.604-11.341 7.082-18.097 7.082z" fill="#263037"/><path d="M259.6 164.121l.552-.764c.401-.544.877-.592 1.454-.223.752.519 2.03 1.234 3.584 1.234 1.354 0 2.607-.69 2.607-2.122 0-2.96-8.472-2.664-8.472-7.969 0-2.54 1.93-4.514 4.712-4.958v-1.308c0-.666.3-1.011 1.002-1.011h.176c.651 0 .978.296.978.863v1.407c1.73.123 2.958.764 3.634 1.233.552.321.602.839.301 1.381l-.426.84c-.326.592-.802.665-1.429.32-.652-.394-1.729-.912-3.007-.912-1.505 0-2.708.863-2.708 2.097 0 2.935 8.472 2.417 8.472 7.944 0 2.516-1.78 4.662-4.837 5.057v1.234c0 .666-.327 1.036-.978 1.036h-.176c-.701 0-1.002-.321-1.002-.864v-1.406a8.638 8.638 0 0 1-4.26-1.678c-.527-.37-.553-.913-.176-1.43" fill="#3C4349"/><path d="M248.776 107.049c-1.906 0-3.451 1.573-3.451 3.506v1.84c0 1.94 1.545 3.514 3.45 3.514h13.662c1.9 0 3.445-1.573 3.445-3.513v-1.84c0-1.934-1.546-3.507-3.445-3.507h-13.661zm-3.615 5.347v-1.84c0-2.02 1.624-3.674 3.615-3.674h13.66c1.985 0 3.61 1.653 3.61 3.673v1.84c0 2.027-1.625 3.68-3.61 3.68h-13.66c-1.991 0-3.615-1.653-3.615-3.68z" fill="#221F20"/><path d="M248.776 116.242c-2.082 0-3.779-1.727-3.779-3.846v-1.84c0-2.12 1.697-3.84 3.779-3.84h13.66c2.084 0 3.773 1.72 3.773 3.84v1.84c0 2.12-1.69 3.846-3.772 3.846h-13.661zm0-9.36c-1.991 0-3.615 1.653-3.615 3.673v1.84c0 2.027 1.624 3.68 3.615 3.68h13.66c1.985 0 3.61-1.653 3.61-3.68v-1.84c0-2.02-1.625-3.673-3.61-3.673h-13.66z" fill="#221F20"/><path d="M262.437 116.068c1.984 0 3.608-1.69 3.608-3.764H245.16c0 2.073 1.625 3.764 3.616 3.764h13.66zm3.772-3.764c0 2.169-1.69 3.935-3.772 3.935h-13.661c-2.083 0-3.779-1.766-3.779-3.935 0-.095.072-.17.163-.17h20.885c.092 0 .164.075.164.17z" fill="#221F20"/><path d="M266.528 112.796v1.802c0 1.984-1.386 3.602-3.086 3.602h-15.438c-1.7 0-3.086-1.618-3.086-3.602v-1.802c0-1.978 1.386-3.596 3.086-3.596h15.438c1.7 0 3.086 1.618 3.086 3.596" fill="#D2B58F"/><path d="M248.184 109.79c-1.083 0-1.964.93-1.964 2.075v1.863c0 1.148.881 2.082 1.964 2.082h13.284c1.08 0 1.957-.934 1.957-2.082v-1.863c0-1.145-.877-2.075-1.957-2.075h-13.284zm13.284 9.31h-13.284c-2.794 0-5.067-2.41-5.067-5.372v-1.863c0-2.958 2.273-5.365 5.067-5.365h13.284c2.79 0 5.06 2.407 5.06 5.365v1.863c0 2.963-2.27 5.372-5.06 5.372z" fill="#263037"/><path d="M262.437 115.898c1.846 0 3.353-1.52 3.438-3.423h-20.544c.086 1.902 1.598 3.423 3.445 3.423h13.66zm3.608-3.593c0 2.072-1.624 3.763-3.608 3.763h-13.661c-1.991 0-3.616-1.69-3.616-3.763h20.885z" fill-opacity=".1" fill="#221F20"/><path d="M269.23 119.996v1.802c0 1.984-1.56 3.602-3.473 3.602H248.39c-1.912 0-3.472-1.618-3.472-3.602v-1.802c0-1.978 1.56-3.596 3.472-3.596h17.367c1.913 0 3.472 1.618 3.472 3.596" fill="#D2B58F"/><path d="M269.23 121.8c0 1.983-1.56 3.6-3.473 3.6H248.39c-1.912 0-3.472-1.617-3.472-3.6h24.311z" fill-opacity=".1" fill="#010201"/><path d="M248.318 118.129c-.992 0-1.8.834-1.8 1.86v1.816c0 1.03.808 1.866 1.8 1.866h17.51c.993 0 1.8-.837 1.8-1.866v-1.816c0-1.026-.807-1.86-1.8-1.86h-17.51zm17.51 9.071h-17.51c-2.868 0-5.201-2.42-5.201-5.395v-1.816c0-2.971 2.333-5.389 5.201-5.389h17.51c2.869 0 5.202 2.418 5.202 5.389v1.816c0 2.975-2.333 5.395-5.202 5.395z" fill="#263037"/><path d="M265.628 128.996v1.801c0 1.984-1.61 3.603-3.578 3.603h-13.547c-1.974 0-3.585-1.619-3.585-3.603v-1.801c0-1.978 1.61-3.596 3.585-3.596h13.547c1.967 0 3.578 1.618 3.578 3.596" fill="#D2B58F"/><path d="M265.628 130.8c0 1.983-1.61 3.6-3.578 3.6h-13.547c-1.974 0-3.585-1.617-3.585-3.6h20.71z" fill-opacity=".1" fill="#010201"/><path d="M248.184 126.89c-1.083 0-1.964.93-1.964 2.075v1.863c0 1.148.881 2.082 1.964 2.082h13.284c1.08 0 1.957-.934 1.957-2.082v-1.863c0-1.145-.877-2.075-1.957-2.075h-13.284zm13.284 9.31h-13.284c-2.794 0-5.067-2.41-5.067-5.372v-1.863c0-2.958 2.273-5.365 5.067-5.365h13.284c2.79 0 5.06 2.407 5.06 5.365v1.863c0 2.962-2.27 5.372-5.06 5.372z" fill="#263037"/><path d="M253.022 106.5h20.71" fill="#F9FCFE"/><path d="M272.895 108.3h-19.937c-.96 0-1.737-.806-1.737-1.8s.778-1.8 1.737-1.8h19.937c.96 0 1.737.806 1.737 1.8s-.778 1.8-1.737 1.8" fill="#263037"/><path d="M281.434 160.5a1.303 1.303 0 0 1-1.29-1.159 17.506 17.506 0 0 0-1.77-5.943 1.31 1.31 0 0 1 .572-1.756 1.297 1.297 0 0 1 1.748.573 20.14 20.14 0 0 1 2.034 6.83 1.305 1.305 0 0 1-1.294 1.455m-5.457-13.5c-.493 0-.967-.248-1.208-.68a18.414 18.414 0 0 1-1.91-5.018c-.15-.678.325-1.34 1.06-1.477.735-.136 1.451.3 1.6.978a16.015 16.015 0 0 0 1.663 4.369c.344.615.082 1.372-.584 1.688-.2.095-.412.14-.621.14" fill="#FEFEFE"/></g></svg>