<svg xmlns="http://www.w3.org/2000/svg" width="24" height="24" viewBox="0 0 24 24">
  <path fill="#02B3E4" d="M5 5v14h6c.552285 0 1 .447715 1 1s-.447715 1-1 1H4.87746C3.81106 21 3 20.081657 3 19.006602V4.993398C3 3.91782 3.807195 3 4.875763 3h12.248474C18.191477 3 19 3.916708 19 4.996078V10c0 .552285-.447715 1-1 1s-1-.447715-1-1V5H5zm3 4c-.552285 0-1-.447715-1-1s.447715-1 1-1h6c.552285 0 1 .447715 1 1s-.447715 1-1 1H8zm0 4c-.552285 0-1-.447715-1-1s.447715-1 1-1h4c.552285 0 1 .447715 1 1s-.447715 1-1 1H8zm0 4c-.552285 0-1-.447715-1-1s.447715-1 1-1h3c.552285 0 1 .447715 1 1s-.447715 1-1 1H8zm6-2.009222C14 13.892688 14.897286 13 15.990778 13h4.018444C21.107312 13 22 13.897286 22 14.990778v4.018444C22 20.107312 21.102715 21 20.009222 21h-4.018444C14.892688 21 14 20.102715 14 19.009222v-4.018444zM16 19h4v-4h-4v4z"/>
</svg>
