<svg xmlns="http://www.w3.org/2000/svg" xmlns:xlink="http://www.w3.org/1999/xlink" viewBox="0 0 33.56 19.58"><defs><style>.cls-1{fill:none;}.cls-2{clip-path:url(#clip-path);}.cls-3{fill:#e1001f;}.cls-4{fill:#f6d928;}.cls-5{fill:#f6d728;}.cls-6{fill:#ca001c;}.cls-7{fill:#f0f7ff;}</style><clipPath id="clip-path"><rect class="cls-1" width="33.56" height="19.58"/></clipPath></defs><title>Ресурс 10</title><g id="Шар_2" data-name="Шар 2"><g id="_4" data-name="4"><g class="cls-2"><rect width="33.56" height="6.52"/><rect class="cls-3" y="6.52" width="33.56" height="6.53"/><rect class="cls-4" y="13.05" width="33.56" height="6.53"/><g class="cls-2"><path class="cls-5" d="M12.14,4.63v7.84c0,2.94,3.94,2.58,4.64,3.75.7-1.17,4.65-.82,4.65-3.75V4.63Z"/><path d="M16.78,16.28l0,0a3.15,3.15,0,0,0-1.68-.89c-1.32-.44-3-1-3-2.88V4.61h9.35v7.86c0,1.89-1.65,2.44-3,2.88-.77.26-1.43.47-1.68.89l0,0ZM12.16,4.66v7.81c0,1.85,1.56,2.37,2.93,2.83a3.35,3.35,0,0,1,1.68.88,3.35,3.35,0,0,1,1.69-.88c1.37-.46,2.93-1,2.93-2.83V4.66Z"/><path d="M16.48,5.76a2,2,0,0,1-.16,1,2.09,2.09,0,0,0-.45.89,27.07,27.07,0,0,0,.91,6.15,27,27,0,0,0,.91-6.15,7.05,7.05,0,0,0-.35-2.23Z"/><path class="cls-6" d="M16.57,6a3.24,3.24,0,0,1-1.1-.26,1.54,1.54,0,0,0,.85.37Z"/><path d="M16.32,6.12a1.38,1.38,0,0,1-.86-.35A4,4,0,0,0,16.57,6V6a3.12,3.12,0,0,1-1.11-.26,1.87,1.87,0,0,0,.85.35Z"/><path class="cls-6" d="M16.43,5.05c-.7-.35-1.13,0-.66.68,0-.12.49-.28.7.28a1.61,1.61,0,0,1-.77,0,1.45,1.45,0,0,0,1,.12c.12-.07-.21-.66-.21-.66Z"/><path d="M16.4,6.21a1.35,1.35,0,0,1-.7-.16,1.82,1.82,0,0,0,.78,0c-.13-.31-.33-.37-.44-.37h0a.27.27,0,0,0-.24.11c-.24-.28-.28-.55-.15-.71s.45-.17.8,0v0c-.33-.17-.63-.17-.77,0s-.08.4.13.67c0-.06.12-.12.25-.12s.33.05.46.41a1.37,1.37,0,0,1-.79,0,1.61,1.61,0,0,0,1,.09c.08,0-.09-.41-.22-.64.08.09.36.59.23.66a.72.72,0,0,1-.28,0Z"/><path d="M17.3,5.55a.93.93,0,0,0,.45-.23,2.82,2.82,0,0,1-.92-.24c-.19-.1-.51-.3-.51.09s.42.71.35,1Z"/><path class="cls-7" d="M16.71,5.29a2.15,2.15,0,0,1-.28-.16s-.12.26.09.35a.36.36,0,0,1,.19-.19Z"/><path d="M16.55,5.15c-.11,0-.13.12-.07.26,0-.11.09-.18.24-.21Z"/><path d="M17.81,8.34v2.77L21,13.69V6.81a1.39,1.39,0,0,0-.33-1.08V7.17Z"/><polygon class="cls-5" points="18.45 13.38 18.36 13.38 18.36 7.52 18.45 7.52 18.45 13.38 18.45 13.38"/><polygon class="cls-5" points="19.1 13.38 19.02 13.38 19.02 7.52 19.1 7.52 19.1 13.38 19.1 13.38"/><polygon class="cls-5" points="19.76 13.38 19.67 13.38 19.67 7.52 19.76 7.52 19.76 13.38 19.76 13.38"/><polygon class="cls-5" points="20.42 13.38 20.33 13.38 20.33 7.52 20.42 7.52 20.42 13.38 20.42 13.38"/><path d="M17.2,8.86c2.11,0,3-.68,3.45-1.2V5.76A.51.51,0,0,0,21,5.24c-.66.54-1.69-.73-2.3.59.33.66,1,.59,1.22.21.47.4.09,1.9-2.75,1.88Z"/><path class="cls-6" d="M18,13.45a.3.3,0,0,0,.12.47.41.41,0,0,1,.07-.4Z"/><path d="M18.11,13.92a.29.29,0,0,1-.21-.21.31.31,0,0,1,.07-.26l0,0a.28.28,0,0,0-.06.24.33.33,0,0,0,.18.21.35.35,0,0,1,.05-.39.52.52,0,0,0,0,.41Z"/><path class="cls-6" d="M18.8,14.25a.5.5,0,0,1-.14.35c.28-.07.4-.17.3-.33Z"/><path d="M18.66,14.62a.61.61,0,0,0,.12-.36h0a.5.5,0,0,1-.14.36c.17-.07.27-.12.3-.19a.14.14,0,0,0,0-.14.12.12,0,0,1,0,.15c0,.08-.14.14-.34.19Z"/><path class="cls-6" d="M19.74,13.9a.61.61,0,0,1,0,.38c.21-.19.28-.45.12-.49Z"/><path d="M19.77,14.29a.85.85,0,0,0,0-.38h0a.62.62,0,0,1,0,.38.59.59,0,0,0,.18-.4.1.1,0,0,0-.08-.08c.06,0,.09,0,.11.07a.51.51,0,0,1-.21.42Z"/><path class="cls-6" d="M19.71,13.06c.08,0,.16.09.23.23,0-.26,0-.4-.26-.45Z"/><path d="M20,13.29c-.1-.13-.18-.21-.25-.22v0c.08,0,.17.1.25.24,0-.27-.07-.38-.28-.42.26,0,.3.19.28.43Z"/><path class="cls-6" d="M17.65,12.28l1.1,1a4.37,4.37,0,0,1-.59.09c-.17,0-.31,0-.26.1s.14,0,.19.12.12.17.21.07a1.49,1.49,0,0,1,.42-.19,5.9,5.9,0,0,1,0,.61c0,.07-.09.21,0,.21a.68.68,0,0,1,.24,0c.19,0,.16.07.12-.21a2.79,2.79,0,0,1,0-.58,3.08,3.08,0,0,1,.56.47c.14.19.12,0,.19,0a.58.58,0,0,1,.24-.12c.07,0-.19-.1-.26-.14l-.61-.35a4,4,0,0,1,.49-.12c.19,0,.19,0,.17-.12a.71.71,0,0,1,0-.23s0-.09-.14,0a5.52,5.52,0,0,1-.66.33L18,12Z"/><path d="M19,14.33h-.12a.73.73,0,0,0-.2,0h-.06s0-.08,0-.16l0-.06a5.17,5.17,0,0,0,0-.61,2.59,2.59,0,0,0-.4.2.12.12,0,0,1-.1,0c-.06,0-.1-.06-.14-.11a.2.2,0,0,0-.1-.07l-.08,0h0v0c0-.05.16-.08.28-.08a4.57,4.57,0,0,0,.58-.09l-1.11-1,0,0,1.1,1a2.14,2.14,0,0,1-.6.12.41.41,0,0,0-.25.06.14.14,0,0,0,.08.05.25.25,0,0,1,.12.08c0,.05.07.1.11.1a.08.08,0,0,0,.07,0,1.37,1.37,0,0,1,.43-.19,3.42,3.42,0,0,1,0,.63l0,.06s0,.12,0,.13a.75.75,0,0,1,.24,0H19a.27.27,0,0,0,0-.11l0-.11a2.76,2.76,0,0,1,0-.59,2.22,2.22,0,0,1,.59.46c.05.07.07.08.09.09s0,0,0,0l0-.07a.51.51,0,0,1,.21-.11s-.05,0-.1-.06l-.13-.06-.61-.35a1.57,1.57,0,0,1,.5-.14c.1,0,.15,0,.16,0s0,0,0-.07a.53.53,0,0,1,0-.19s0,0,0,0,0,0-.12,0a5.47,5.47,0,0,1-.66.33L18,12l.94,1.2s.52-.24.64-.33.11-.07.14-.05,0,0,0,.06,0,0,0,.05a.51.51,0,0,0,0,.18s0,.07,0,.09-.06,0-.18,0a3.7,3.7,0,0,0-.48.12,4.88,4.88,0,0,1,.61.33l.13.06c.11,0,.15.06.15.08l-.05,0a.45.45,0,0,0-.2.1.23.23,0,0,0,0,.07s0,.05-.05.06-.06,0-.12-.1a3.07,3.07,0,0,0-.55-.46s0,.31,0,.57l0,.11c0,.08,0,.12,0,.13Z"/><path d="M16.78,15.33l.49-.59c.56.35,1,.25,1.24-.28-.84.14-1.24-.63-1.2-2.3l.63,1v-.91l.77.09-2-2.18Z"/><path d="M15.75,8.34v2.77l-3.14,2.58V6.81a1.39,1.39,0,0,1,.33-1.08V7.17Z"/><polygon class="cls-5" points="15.21 13.38 15.12 13.38 15.12 7.52 15.21 7.52 15.21 13.38 15.21 13.38"/><polygon class="cls-5" points="14.55 13.38 14.46 13.38 14.46 7.52 14.55 7.52 14.55 13.38 14.55 13.38"/><polygon class="cls-5" points="13.89 13.38 13.8 13.38 13.8 7.52 13.89 7.52 13.89 13.38 13.89 13.38"/><polygon class="cls-5" points="13.24 13.38 13.15 13.38 13.15 7.52 13.24 7.52 13.24 13.38 13.24 13.38"/><path d="M16.36,8.86c-2.11,0-3-.68-3.45-1.2V5.76a.5.5,0,0,1-.37-.52c.66.54,1.69-.73,2.3.59A.69.69,0,0,1,13.61,6c-.47.4-.09,1.9,2.75,1.88Z"/><path class="cls-6" d="M15.58,13.45a.3.3,0,0,1-.12.47.41.41,0,0,0-.07-.4Z"/><path d="M15.47,13.94a.48.48,0,0,0-.09-.4.35.35,0,0,1,.1.39.52.52,0,0,0,.16-.23.28.28,0,0,0-.07-.24l0,0a.31.31,0,0,1,.07.26.35.35,0,0,1-.19.23Z"/><path class="cls-6" d="M14.76,14.25a.5.5,0,0,0,.14.35c-.28-.07-.4-.17-.3-.33Z"/><path d="M14.92,14.6c-.21,0-.32-.08-.35-.16a.18.18,0,0,1,0-.16.35.35,0,0,0,0,.15c0,.07.13.12.32.17a.4.4,0,0,1-.16-.34h0a.46.46,0,0,0,.14.34Z"/><path class="cls-6" d="M13.83,13.9a.61.61,0,0,0,0,.38c-.21-.19-.28-.45-.12-.49Z"/><path d="M13.82,14.27a.44.44,0,0,1-.23-.4.13.13,0,0,1,.1-.1.25.25,0,0,0-.07.11.48.48,0,0,0,.2.39.45.45,0,0,1,0-.37h0a.59.59,0,0,0,0,.37Z"/><path class="cls-6" d="M13.85,13.06c-.08,0-.16.09-.23.23,0-.26,0-.4.26-.45Z"/><path d="M13.63,13.3c0-.25,0-.42.24-.47-.2.07-.27.18-.24.46.05-.15.13-.23.22-.25v0c-.07,0-.15.09-.22.23Z"/><path class="cls-6" d="M15.91,12.28l-1.1,1a4.36,4.36,0,0,0,.59.09c.16,0,.3,0,.26.1s-.14,0-.19.12-.12.17-.21.07a1.49,1.49,0,0,0-.42-.19,5.9,5.9,0,0,0,0,.61c0,.07.09.21,0,.21a.67.67,0,0,0-.23,0c-.19,0-.16.07-.12-.21a2.83,2.83,0,0,0,0-.58A3,3,0,0,0,14,14c-.14.19-.12,0-.19,0a.56.56,0,0,0-.23-.12c-.07,0,.19-.1.26-.14l.61-.35a4.08,4.08,0,0,0-.49-.12c-.19,0-.19,0-.16-.12a.8.8,0,0,0,0-.23s0-.09.14,0a5.67,5.67,0,0,0,.66.33L15.52,12Z"/><path d="M14.54,14.33h0s0,0,0-.13l0-.11a2.68,2.68,0,0,0,0-.58A6.43,6.43,0,0,0,14,14c-.05.07-.09.1-.12.1s0,0-.05-.06a.21.21,0,0,0,0-.06.43.43,0,0,0-.2-.1l0,0s0,0,.15-.08l.13-.06.6-.35s-.31-.07-.48-.1-.16,0-.18,0,0,0,0-.09a.51.51,0,0,0,0-.18s0,0,0-.05,0-.06,0-.06.08,0,.14.05a5.29,5.29,0,0,0,.65.33L15.5,12l-.89,1.24a4.12,4.12,0,0,1-.68-.33c-.07-.06-.1-.05-.1-.05a.22.22,0,0,0,0,.09.47.47,0,0,1,0,.19s0,.06,0,.07.06,0,.16,0a4.1,4.1,0,0,1,.5.12s-.54.33-.61.38l-.14.06-.13.06a.49.49,0,0,1,.24.11.26.26,0,0,1,0,.07s0,0,0,0,0,0,.09-.09a3.2,3.2,0,0,1,.57-.47,1.65,1.65,0,0,1,0,.6l0,.11a.28.28,0,0,0,0,.11h.13a.67.67,0,0,1,.2,0s0-.09,0-.13l0-.06a5.86,5.86,0,0,1,0-.62,1,1,0,0,1,.45.18.09.09,0,0,0,.07,0s.08-.05.11-.1a.25.25,0,0,1,.12-.08l.07,0s-.11-.07-.25-.07a4.22,4.22,0,0,1-.59-.1l1.1-1,0,0-1.1,1s.42.07.58.07.26,0,.28.08h0v0l-.08,0a.21.21,0,0,0-.1.07c0,.05-.08.11-.14.11a.12.12,0,0,1-.1,0,1.4,1.4,0,0,0-.41-.19c0,.13,0,.54,0,.59l0,.06c0,.08.05.14,0,.16h-.06a.71.71,0,0,0-.2,0h-.13Z"/><path d="M16.78,15.33l-.49-.59c-.56.35-1,.25-1.24-.28.84.14,1.24-.63,1.19-2.3l-.63,1v-.91l-.78.09,2-2.18Z"/></g></g></g></g></svg>